<svg id="Brand" xmlns="http://www.w3.org/2000/svg" viewBox="0 0 1190.55 841.89"><defs><style>.cls-1{fill:#d0d2d3;}.cls-2{fill:#c33761;}.cls-3{fill:#eecb6e;}.cls-4{font-size:128.72px;fill:#231f20;font-family:Nunito-ExtraBold, Nunito;font-weight:800;}.cls-5{letter-spacing:-0.01em;}.cls-6{letter-spacing:0.04em;}.cls-7{letter-spacing:0em;}.cls-8{fill:#e6e7e8;}.cls-9{fill:#a6a8ab;}.cls-10{fill:#6d6e70;}.cls-11{fill:#404041;}.cls-12{fill:#f1f1f2;}.cls-13{fill:#bbbdbf;}</style></defs><circle class="cls-1" cx="587.82" cy="355.21" r="103.46"/><path class="cls-2" d="M663.6,368.31l-.59-.41c0,.51-.12,1-.19,1.53Z"/><path class="cls-3" d="M663,367.67a1.19,1.19,0,0,1-.1.18l.07,0Z"/><text class="cls-4" transform="matrix(1, 0, 0, 1, 303.19, 555.93)">po<tspan class="cls-5" x="154.33" y="0">l</tspan><tspan class="cls-6" x="195.39" y="0">y</tspan><tspan x="269.53" y="0">w</tspan><tspan class="cls-7" x="380.36" y="0">r</tspan><tspan x="432.75" y="0">ap</tspan></text><path class="cls-8" d="M505.73,418.11A103.06,103.06,0,0,1,659.89,282,103.07,103.07,0,1,0,514,427.65,102.79,102.79,0,0,1,505.73,418.11Z"/><path class="cls-2" d="M663,368.31l-.58-.41c0,.51-.13,1-.19,1.53Z"/><path class="cls-3" d="M662.44,367.67l-.1.18.07,0Z"/><circle class="cls-9" cx="580.21" cy="372.94" r="48.98"/><circle class="cls-10" cx="624.44" cy="328.41" r="32.15"/><path class="cls-11" d="M597.52,346.05a32.14,32.14,0,0,0,30,14.35,48.95,48.95,0,0,0-35.13-34.9A32,32,0,0,0,597.52,346.05Z"/><circle class="cls-12" cx="573.38" cy="299.2" r="13.67"/><path class="cls-13" d="M669.26,292.48a102.46,102.46,0,0,1-19.08,143.63c-41,31.39-100.52,26.72-136.34-8.46,35.71,36.52,96.23,41.75,137.81,9.93A102.48,102.48,0,0,0,661.07,283,105.13,105.13,0,0,1,669.26,292.48Z"/></svg>