<?xml version="1.0" encoding="utf-8"?>
<!-- Generator: Adobe Illustrator 24.0.0, SVG Export Plug-In . SVG Version: 6.00 Build 0)  -->
<svg version="1.1" id="Layer_1" xmlns="http://www.w3.org/2000/svg" xmlns:xlink="http://www.w3.org/1999/xlink" x="0px" y="0px"
	 viewBox="0 0 1471 583" style="enable-background:new 0 0 1471 583;" xml:space="preserve">
<style type="text/css">
	.st0{fill:#1C272D;}
	.st1{fill:url(#SVGID_1_);}
	.st2{fill:url(#SVGID_2_);}
	.st3{fill:url(#SVGID_3_);}
	.st4{fill:url(#SVGID_4_);}
	.st5{fill:url(#SVGID_5_);}
	.st6{fill:url(#SVGID_6_);}
	.st7{fill:url(#SVGID_7_);}
	.st8{fill:url(#SVGID_8_);}
	.st9{fill:url(#SVGID_9_);}
	.st10{fill:url(#SVGID_10_);}
	.st11{fill:url(#SVGID_11_);}
	.st12{fill:url(#SVGID_12_);}
	.st13{fill:url(#SVGID_13_);}
</style>
<g>
	<g>
		<g>
			<path class="st0" d="M477.52,224.71h16.69l36.38,108.45l1.91,7.24h0.4l1.51-7.44l34.47-108.24h16.69l34.37,108.24l1.7,7.44h0.31
				l1.91-7.93l36.28-107.74h16.78l-46.83,136.68h-15.68l-37.18-114.77l-37.3,114.77h-15.58L477.52,224.71z"/>
			<path class="st0" d="M775.61,313.97h-86.23c1.91,22.12,18.2,35.88,35.88,35.88c14.17,0,25.23-6.42,30.15-18.79h17.09
				c-6.02,18.7-24.22,33.17-46.93,33.17c-29.15,0-51.65-24.03-51.65-53.96c0-29.95,22.52-53.96,51.65-53.96
				c29.15,0,50.35,24.03,50.35,51.36C775.92,309.34,775.8,310.64,775.61,313.97z M760.22,300.3c-1.01-15.77-16.38-29.55-34.87-29.55
				c-16.48,0-31.56,10.76-35.27,29.55H760.22z"/>
			<path class="st0" d="M814.4,338.38v23.02h-14.78V219.88h15.48v47.94l-0.4,14.17c6.73-14.38,21.72-25.63,40.3-25.63
				c28.85,0,50.66,24.03,50.66,53.87c0,30.05-21.91,53.96-50.45,53.96C837.82,364.22,821.84,354.36,814.4,338.38z M890.39,310.24
				c0-22.92-16.88-39.49-37.79-39.49c-20.8,0-37.7,17.4-37.7,39.49c0,22.71,17.09,39.59,37.79,39.59
				C873.3,349.85,890.39,333.65,890.39,310.24z"/>
			<path class="st0" d="M921.74,315.36h24.83c0.61,20,14.47,26.32,26.93,26.32c13.46,0,24.83-10.36,24.83-24.43
				c0-13.27-10.55-23.72-28.04-23.72H952.4v-12.56l28.75-35.58l0.21-0.4H929.1v-20.3h82.41v13.06l-31.75,37.18l-0.71,1.01
				c26.63,2.22,44.43,14.28,44.43,42.02c0,26.32-21.6,46.53-50.56,46.53C947.07,364.51,922.23,350.84,921.74,315.36z"/>
			
				<linearGradient id="SVGID_1_" gradientUnits="userSpaceOnUse" x1="1098.0162" y1="152.1338" x2="1098.0162" y2="374.2866" gradientTransform="matrix(1 0 0 -1 0 583.6693)">
				<stop  offset="0" style="stop-color:#529DAD"/>
				<stop  offset="1" style="stop-color:#60C092"/>
			</linearGradient>
			<path class="st1" d="M1129.47,334.97h-62.91l-10.86,26.44h-26.44l56.89-136.78h23.72l56.89,136.78h-26.44L1129.47,334.97z
				 M1120.93,314.06l-22.12-53.87l-0.61-3.33h-0.31l-0.8,3.33l-22,53.87H1120.93z"/>
			
				<linearGradient id="SVGID_2_" gradientUnits="userSpaceOnUse" x1="1236.5697" y1="152.1338" x2="1236.5697" y2="374.2866" gradientTransform="matrix(1 0 0 -1 0 583.6693)">
				<stop  offset="0" style="stop-color:#529DAD"/>
				<stop  offset="1" style="stop-color:#60C092"/>
			</linearGradient>
			<path class="st2" d="M1184.05,224.71h57.6c27.64,0,47.45,19.4,47.45,46.03c0,28.14-19.59,47.03-47.03,47.03h-32.96v43.62h-25.02
				V224.71H1184.05z M1240.84,295.46c13.06,0,23.21-10.65,23.21-24.72c0-12.46-10.15-23.72-23.42-23.72h-31.56v48.44H1240.84z"/>
			
				<linearGradient id="SVGID_3_" gradientUnits="userSpaceOnUse" x1="1320.9863" y1="152.1338" x2="1320.9863" y2="374.2866" gradientTransform="matrix(1 0 0 -1 0 583.6693)">
				<stop  offset="0" style="stop-color:#529DAD"/>
				<stop  offset="1" style="stop-color:#60C092"/>
			</linearGradient>
			<path class="st3" d="M1308.47,224.71h25.02v136.68h-25.02V224.71z"/>
		</g>
	</g>
	<g>
		<g>
			
				<linearGradient id="SVGID_4_" gradientUnits="userSpaceOnUse" x1="286.8051" y1="141.7888" x2="286.8051" y2="437.8938" gradientTransform="matrix(1 0 0 -1 0 583.6693)">
				<stop  offset="0" style="stop-color:#529DAD"/>
				<stop  offset="1" style="stop-color:#60C092"/>
			</linearGradient>
			<path class="st4" d="M286.81,192c-49.17,0-89.18,40.01-89.18,89.18s39.99,89.16,89.16,89.16s89.18-39.99,89.18-89.16
				C375.97,232.01,335.98,192,286.81,192z M286.81,351.22c-38.61,0-70.04-31.43-70.04-70.04c0-38.63,31.43-70.04,70.04-70.04
				s70.04,31.43,70.04,70.04C356.86,319.8,325.43,351.22,286.81,351.22z"/>
			
				<linearGradient id="SVGID_5_" gradientUnits="userSpaceOnUse" x1="376.2016" y1="141.7888" x2="376.2016" y2="437.8938" gradientTransform="matrix(1 0 0 -1 0 583.6693)">
				<stop  offset="0" style="stop-color:#529DAD"/>
				<stop  offset="1" style="stop-color:#60C092"/>
			</linearGradient>
			<path class="st5" d="M433.7,208.73c0-13.44-10.93-24.37-24.37-24.37c-13.44,0-24.37,10.93-24.37,24.37
				c0,10.93,7.28,20.09,17.2,23.19v99.58c0,10.48-5.64,20.24-14.72,25.48l-68.74,39.69l7.17,12.43l68.74-39.69
				c13.5-7.8,21.89-22.33,21.89-37.91v-99.58C426.42,228.82,433.7,219.67,433.7,208.73z M409.31,218.77
				c-5.54,0-10.04-4.51-10.04-10.04c0-5.54,4.51-10.04,10.04-10.04c5.52,0,10.04,4.51,10.04,10.04
				C419.37,214.27,414.85,218.77,409.31,218.77z"/>
			
				<linearGradient id="SVGID_6_" gradientUnits="userSpaceOnUse" x1="256.6781" y1="141.7888" x2="256.6781" y2="437.8938" gradientTransform="matrix(1 0 0 -1 0 583.6693)">
				<stop  offset="0" style="stop-color:#529DAD"/>
				<stop  offset="1" style="stop-color:#60C092"/>
			</linearGradient>
			<path class="st6" d="M186.23,208.73c0-1.28-0.19-2.52-0.38-3.77l85.03-49.89c9.08-5.24,20.36-5.24,29.44,0l68.4,39.49l7.17-12.43
				l-68.4-39.49c-13.5-7.8-30.28-7.8-43.81,0.02l-84.13,49.38c-4.45-4.72-10.71-7.7-17.68-7.7c-13.44,0-24.37,10.93-24.37,24.37
				c0,13.44,10.93,24.37,24.37,24.37C175.29,233.12,186.23,222.17,186.23,208.73z M151.8,208.73c0-5.54,4.51-10.04,10.04-10.04
				c5.54,0,10.04,4.51,10.04,10.04c0,5.54-4.51,10.04-10.04,10.04S151.8,214.27,151.8,208.73z"/>
			
				<linearGradient id="SVGID_7_" gradientUnits="userSpaceOnUse" x1="232.955" y1="141.7888" x2="232.955" y2="437.8938" gradientTransform="matrix(1 0 0 -1 0 583.6693)">
				<stop  offset="0" style="stop-color:#529DAD"/>
				<stop  offset="1" style="stop-color:#60C092"/>
			</linearGradient>
			<path class="st7" d="M286.81,398.84c-6.9,0-13.09,2.91-17.53,7.53L183.76,357c-9.08-5.24-14.72-15.01-14.72-25.48V251.3H154.7
				v80.21c0,15.58,8.39,30.11,21.89,37.91l86.27,49.82c-0.23,1.32-0.4,2.64-0.4,4.01c0,13.44,10.93,24.37,24.37,24.37
				c13.44,0,24.37-10.93,24.37-24.37C311.21,409.81,300.25,398.84,286.81,398.84z M286.81,433.25c-5.54,0-10.04-4.51-10.04-10.04
				c0-5.54,4.51-10.04,10.04-10.04c5.52,0,10.04,4.51,10.04,10.04C296.85,428.76,292.34,433.25,286.81,433.25z"/>
			
				<linearGradient id="SVGID_8_" gradientUnits="userSpaceOnUse" x1="262.7666" y1="141.7888" x2="262.7666" y2="437.8938" gradientTransform="matrix(1 0 0 -1 0 583.6693)">
				<stop  offset="0" style="stop-color:#529DAD"/>
				<stop  offset="1" style="stop-color:#60C092"/>
			</linearGradient>
			<path class="st8" d="M262.77,303.47c-7.24,0-13.11,5.87-13.11,13.11s5.87,13.09,13.11,13.09c7.25,0,13.11-5.87,13.11-13.09
				C275.88,309.34,270.01,303.47,262.77,303.47z"/>
			
				<linearGradient id="SVGID_9_" gradientUnits="userSpaceOnUse" x1="301.0084" y1="141.7888" x2="301.0084" y2="437.8938" gradientTransform="matrix(1 0 0 -1 0 583.6693)">
				<stop  offset="0" style="stop-color:#529DAD"/>
				<stop  offset="1" style="stop-color:#60C092"/>
			</linearGradient>
			<path class="st9" d="M298.53,269.67V276h4.95v-6.33c3.29-0.44,6.29-1.7,8.79-3.63l4.47,4.47l3.5-3.5l-4.47-4.47
				c1.93-2.5,3.19-5.51,3.63-8.79h6.33v-4.95h-6.33c-0.44-3.29-1.7-6.29-3.63-8.79l4.47-4.47l-3.5-3.5l-4.47,4.47
				c-2.52-1.93-5.51-3.19-8.79-3.63v-6.33h-4.95v6.33c-3.29,0.44-6.29,1.7-8.79,3.63l-4.47-4.47l-3.5,3.5l4.47,4.47
				c-1.93,2.52-3.19,5.51-3.63,8.79h-6.33v4.95h6.33c0.44,3.29,1.7,6.29,3.63,8.79l-4.47,4.47l3.5,3.5l4.47-4.47
				C292.26,267.97,295.24,269.23,298.53,269.67z"/>
			
				<linearGradient id="SVGID_10_" gradientUnits="userSpaceOnUse" x1="319.5815" y1="141.7888" x2="319.5815" y2="437.8938" gradientTransform="matrix(1 0 0 -1 0 583.6693)">
				<stop  offset="0" style="stop-color:#529DAD"/>
				<stop  offset="1" style="stop-color:#60C092"/>
			</linearGradient>
			<path class="st10" d="M321.68,329.22c20.74-14.03,21.05-38.6,21.05-38.6c-2.14-14.8-11.35,5.12-35.08,16.63
				C284.64,318.4,300.92,343.25,321.68,329.22z"/>
		</g>
		
			<linearGradient id="SVGID_11_" gradientUnits="userSpaceOnUse" x1="246.5372" y1="141.7888" x2="246.5372" y2="437.8938" gradientTransform="matrix(1 0 0 -1 0 583.6693)">
			<stop  offset="0" style="stop-color:#529DAD"/>
			<stop  offset="1" style="stop-color:#60C092"/>
		</linearGradient>
		<path class="st11" d="M260.05,246.71c-1.13-9.19-14.62-8.87-15.81,0.32c-0.57,4.43-0.57,9.92-4.91,15.39
			c-8.56,10.8-8.68,22.67,0.46,24.47c9.14,1.8,14.22-9.88,14.24-19.31s6.58-12.88,6.1-20.21
			C260.11,247.15,260.09,246.92,260.05,246.71z"/>
		<g>
			
				<linearGradient id="SVGID_12_" gradientUnits="userSpaceOnUse" x1="339.1939" y1="141.7888" x2="339.1939" y2="437.8938" gradientTransform="matrix(1 0 0 -1 0 583.6693)">
				<stop  offset="0" style="stop-color:#529DAD"/>
				<stop  offset="1" style="stop-color:#60C092"/>
			</linearGradient>
			<path class="st12" d="M335.08,297.03v-5.12h1.26c4.26-5.43,6.61-11.99,6.04-17.05c-0.27-2.37-1.19-4.21-2.68-5.3
				c-6.08-4.45-6.16-8.95-6.16-9.14h2.37h-1.19l1.19-0.02c0,0.15,0.15,3.56,5.18,7.26c2.03,1.49,3.29,3.88,3.63,6.94
				c0.69,6.08-2.29,13.94-7.59,20.05L335.08,297.03z"/>
		</g>
		
			<linearGradient id="SVGID_13_" gradientUnits="userSpaceOnUse" x1="337.4018" y1="141.7888" x2="337.4018" y2="437.8938" gradientTransform="matrix(1 0 0 -1 0 583.6693)">
			<stop  offset="0" style="stop-color:#529DAD"/>
			<stop  offset="1" style="stop-color:#60C092"/>
		</linearGradient>
		<path class="st13" d="M342.04,279.36c-0.75-2.98-2.29-5.2-4.49-6.4c-1.97-1.09-3.31-2.22-4.21-3.23l-1.07,2.27
			c1.03,0.99,2.35,2.05,4.15,3.02c1.61,0.88,2.77,2.58,3.35,4.89c1.22,4.95-0.25,11.76-3.77,17.7l-1.24,0.17l0.67,5.08l1.76-2.66
			C341.6,293.49,343.51,285.29,342.04,279.36z"/>
	</g>
</g>
</svg>
