<?xml version="1.0" encoding="utf-8"?>
<!-- Generator: Adobe Illustrator 24.0.0, SVG Export Plug-In . SVG Version: 6.00 Build 0)  -->
<svg version="1.1" id="Layer_1" xmlns="http://www.w3.org/2000/svg" xmlns:xlink="http://www.w3.org/1999/xlink" x="0px" y="0px"
	 viewBox="0 0 1000 1000" style="enable-background:new 0 0 1000 1000;" xml:space="preserve">
<style type="text/css">
	.st0{fill:#1B262C;}
	.st1{fill:#FFFFFF;}
	.st2{fill:url(#SVGID_1_);}
	.st3{fill:url(#SVGID_2_);}
	.st4{fill:url(#SVGID_3_);}
	.st5{fill:url(#SVGID_4_);}
	.st6{fill:url(#SVGID_5_);}
	.st7{fill:url(#SVGID_6_);}
	.st8{fill:url(#SVGID_7_);}
	.st9{fill:url(#SVGID_8_);}
	.st10{fill:url(#SVGID_9_);}
	.st11{fill:url(#SVGID_10_);}
	.st12{fill:url(#SVGID_11_);}
	.st13{fill:url(#SVGID_12_);}
	.st14{fill:url(#SVGID_13_);}
</style>
<rect x="0.33" y="0" class="st0" width="999.67" height="1000.71"/>
<g>
	<g>
		<g>
			<path class="st1" d="M365.22,465.19h8.73l19.03,56.73l1,3.79h0.21l0.79-3.89l18.03-56.62h8.73l17.98,56.62l0.89,3.89h0.16l1-4.15
				l18.98-56.36h8.78l-24.5,71.5h-8.2l-19.45-60.04l-19.51,60.04h-8.15L365.22,465.19z"/>
			<path class="st1" d="M521.16,511.88h-45.11c1,11.57,9.52,18.77,18.77,18.77c7.41,0,13.2-3.36,15.77-9.83h8.94
				c-3.15,9.78-12.67,17.35-24.55,17.35c-15.25,0-27.02-12.57-27.02-28.23c0-15.67,11.78-28.23,27.02-28.23
				c15.25,0,26.34,12.57,26.34,26.87C521.32,509.46,521.26,510.14,521.16,511.88z M513.11,504.73c-0.53-8.25-8.57-15.46-18.24-15.46
				c-8.62,0-16.51,5.63-18.45,15.46H513.11z"/>
			<path class="st1" d="M541.45,524.65v12.04h-7.73v-74.03h8.1v25.08l-0.21,7.41c3.52-7.52,11.36-13.41,21.08-13.41
				c15.09,0,26.5,12.57,26.5,28.18c0,15.72-11.46,28.23-26.39,28.23C553.7,538.17,545.34,533.01,541.45,524.65z M581.2,509.93
				c0-11.99-8.83-20.66-19.77-20.66c-10.88,0-19.72,9.1-19.72,20.66c0,11.88,8.94,20.71,19.77,20.71
				C572.26,530.65,581.2,522.18,581.2,509.93z"/>
			<path class="st1" d="M597.6,512.61h12.99c0.32,10.46,7.57,13.77,14.09,13.77c7.04,0,12.99-5.42,12.99-12.78
				c0-6.94-5.52-12.41-14.67-12.41h-9.36v-6.57l15.04-18.61l0.11-0.21h-27.34v-10.62h43.11v6.83l-16.61,19.45l-0.37,0.53
				c13.93,1.16,23.24,7.47,23.24,21.98c0,13.77-11.3,24.34-26.45,24.34C610.85,538.32,597.86,531.17,597.6,512.61z"/>
			<linearGradient id="SVGID_1_" gradientUnits="userSpaceOnUse" x1="689.8171" y1="573.3833" x2="689.8171" y2="457.1709">
				<stop  offset="0" style="stop-color:#529DAD"/>
				<stop  offset="1" style="stop-color:#60BF91"/>
			</linearGradient>
			<path class="st2" d="M706.27,522.87h-32.91l-5.68,13.83h-13.83l29.76-71.55h12.41l29.76,71.55h-13.83L706.27,522.87z
				 M701.8,511.93l-11.57-28.18l-0.32-1.74h-0.16l-0.42,1.74l-11.51,28.18H701.8z"/>
			<linearGradient id="SVGID_2_" gradientUnits="userSpaceOnUse" x1="762.2913" y1="573.3833" x2="762.2913" y2="457.1709">
				<stop  offset="0" style="stop-color:#529DAD"/>
				<stop  offset="1" style="stop-color:#60BF91"/>
			</linearGradient>
			<path class="st3" d="M734.82,465.19h30.13c14.46,0,24.82,10.15,24.82,24.08c0,14.72-10.25,24.6-24.6,24.6h-17.24v22.82h-13.09
				V465.19z M764.53,502.2c6.83,0,12.14-5.57,12.14-12.93c0-6.52-5.31-12.41-12.25-12.41h-16.51v25.34H764.53z"/>
			<linearGradient id="SVGID_3_" gradientUnits="userSpaceOnUse" x1="806.4543" y1="573.3833" x2="806.4543" y2="457.1709">
				<stop  offset="0" style="stop-color:#529DAD"/>
				<stop  offset="1" style="stop-color:#60BF91"/>
			</linearGradient>
			<path class="st4" d="M799.91,465.19H813v71.5h-13.09V465.19z"/>
		</g>
	</g>
	<g>
		<g>
			<linearGradient id="SVGID_4_" gradientUnits="userSpaceOnUse" x1="265.4564" y1="578.795" x2="265.4564" y2="423.8968">
				<stop  offset="0" style="stop-color:#529DAD"/>
				<stop  offset="1" style="stop-color:#60BF91"/>
			</linearGradient>
			<path class="st5" d="M265.46,448.08c-25.72,0-46.65,20.93-46.65,46.65c0,25.72,20.92,46.64,46.64,46.64
				c25.72,0,46.65-20.92,46.65-46.64C312.1,469.01,291.18,448.08,265.46,448.08z M265.46,531.37c-20.2,0-36.64-16.44-36.64-36.64
				c0-20.21,16.44-36.64,36.64-36.64c20.2,0,36.64,16.44,36.64,36.64C302.1,514.93,285.66,531.37,265.46,531.37z"/>
			<linearGradient id="SVGID_5_" gradientUnits="userSpaceOnUse" x1="312.2148" y1="578.795" x2="312.2148" y2="423.8968">
				<stop  offset="0" style="stop-color:#529DAD"/>
				<stop  offset="1" style="stop-color:#60BF91"/>
			</linearGradient>
			<path class="st6" d="M342.3,456.83c0-7.03-5.72-12.75-12.75-12.75c-7.03,0-12.75,5.72-12.75,12.75c0,5.72,3.81,10.51,9,12.13
				v52.09c0,5.48-2.95,10.59-7.7,13.33l-35.96,20.76l3.75,6.5l35.96-20.76c7.06-4.08,11.45-11.68,11.45-19.83v-52.09
				C338.49,467.34,342.3,462.55,342.3,456.83z M329.54,462.08c-2.9,0-5.25-2.36-5.25-5.25c0-2.9,2.36-5.25,5.25-5.25
				s5.25,2.36,5.25,5.25C334.8,459.73,332.44,462.08,329.54,462.08z"/>
			<linearGradient id="SVGID_6_" gradientUnits="userSpaceOnUse" x1="249.6904" y1="578.795" x2="249.6904" y2="423.8968">
				<stop  offset="0" style="stop-color:#529DAD"/>
				<stop  offset="1" style="stop-color:#60BF91"/>
			</linearGradient>
			<path class="st7" d="M212.84,456.83c0-0.67-0.1-1.32-0.2-1.97l44.48-26.1c4.75-2.74,10.65-2.74,15.4,0l35.78,20.66l3.75-6.5
				l-35.78-20.66c-7.06-4.08-15.84-4.08-22.92,0.01l-44.01,25.83c-2.33-2.47-5.6-4.03-9.25-4.03c-7.03,0-12.75,5.72-12.75,12.75
				c0,7.03,5.72,12.75,12.75,12.75C207.12,469.59,212.84,463.86,212.84,456.83z M194.83,456.83c0-2.9,2.36-5.25,5.25-5.25
				c2.9,0,5.25,2.36,5.25,5.25c0,2.9-2.36,5.25-5.25,5.25C197.19,462.08,194.83,459.73,194.83,456.83z"/>
			<linearGradient id="SVGID_7_" gradientUnits="userSpaceOnUse" x1="237.2721" y1="578.795" x2="237.2721" y2="423.8968">
				<stop  offset="0" style="stop-color:#529DAD"/>
				<stop  offset="1" style="stop-color:#60BF91"/>
			</linearGradient>
			<path class="st8" d="M265.46,556.28c-3.61,0-6.85,1.52-9.17,3.94l-44.74-25.83c-4.75-2.74-7.7-7.85-7.7-13.33v-41.96h-7.5v41.96
				c0,8.15,4.39,15.75,11.45,19.83l45.13,26.06c-0.12,0.69-0.21,1.38-0.21,2.1c0,7.03,5.72,12.75,12.75,12.75
				c7.03,0,12.75-5.72,12.75-12.75S272.49,556.28,265.46,556.28z M265.46,574.28c-2.9,0-5.25-2.36-5.25-5.25
				c0-2.9,2.36-5.25,5.25-5.25s5.25,2.36,5.25,5.25C270.71,571.93,268.35,574.28,265.46,574.28z"/>
			<linearGradient id="SVGID_8_" gradientUnits="userSpaceOnUse" x1="252.8814" y1="578.795" x2="252.8814" y2="423.8968">
				<stop  offset="0" style="stop-color:#529DAD"/>
				<stop  offset="1" style="stop-color:#60BF91"/>
			</linearGradient>
			<path class="st9" d="M252.88,506.39c-3.79,0-6.86,3.07-6.86,6.86c0,3.79,3.07,6.85,6.86,6.85c3.79,0,6.86-3.07,6.86-6.85
				C259.74,509.46,256.67,506.39,252.88,506.39z"/>
			<linearGradient id="SVGID_9_" gradientUnits="userSpaceOnUse" x1="272.8876" y1="578.795" x2="272.8876" y2="423.8968">
				<stop  offset="0" style="stop-color:#529DAD"/>
				<stop  offset="1" style="stop-color:#60BF91"/>
			</linearGradient>
			<path class="st10" d="M271.59,488.71v3.31h2.59v-3.31c1.72-0.23,3.29-0.89,4.6-1.9l2.34,2.34l1.83-1.83l-2.34-2.34
				c1.01-1.31,1.67-2.88,1.9-4.6h3.31v-2.59h-3.31c-0.23-1.72-0.89-3.29-1.9-4.6l2.34-2.34l-1.83-1.83l-2.34,2.34
				c-1.32-1.01-2.88-1.67-4.6-1.9v-3.31h-2.59v3.31c-1.72,0.23-3.29,0.89-4.6,1.9l-2.34-2.34l-1.83,1.83l2.34,2.34
				c-1.01,1.32-1.67,2.88-1.9,4.6h-3.31v2.59h3.31c0.23,1.72,0.89,3.29,1.9,4.6l-2.34,2.34l1.83,1.83l2.34-2.34
				C268.31,487.82,269.87,488.48,271.59,488.71z"/>
			<linearGradient id="SVGID_10_" gradientUnits="userSpaceOnUse" x1="282.6005" y1="578.795" x2="282.6005" y2="423.8968">
				<stop  offset="0" style="stop-color:#529DAD"/>
				<stop  offset="1" style="stop-color:#60BF91"/>
			</linearGradient>
			<path class="st11" d="M283.7,519.86c10.85-7.34,11.01-20.19,11.01-20.19c-1.12-7.74-5.94,2.68-18.35,8.7
				C264.32,514.2,272.84,527.2,283.7,519.86z"/>
		</g>
		<linearGradient id="SVGID_11_" gradientUnits="userSpaceOnUse" x1="244.3913" y1="578.795" x2="244.3913" y2="423.8968">
			<stop  offset="0" style="stop-color:#529DAD"/>
			<stop  offset="1" style="stop-color:#60BF91"/>
		</linearGradient>
		<path class="st12" d="M251.46,476.7c-0.59-4.81-7.65-4.64-8.27,0.17c-0.3,2.32-0.3,5.19-2.57,8.05
			c-4.48,5.65-4.54,11.86,0.24,12.8c4.78,0.94,7.44-5.17,7.45-10.1c0.01-4.93,3.44-6.74,3.19-10.57
			C251.49,476.93,251.48,476.81,251.46,476.7z"/>
		<g>
			<linearGradient id="SVGID_12_" gradientUnits="userSpaceOnUse" x1="292.8668" y1="578.795" x2="292.8668" y2="423.8968">
				<stop  offset="0" style="stop-color:#529DAD"/>
				<stop  offset="1" style="stop-color:#60BF91"/>
			</linearGradient>
			<path class="st13" d="M290.71,503.02v-2.68h0.66c2.23-2.84,3.46-6.27,3.16-8.92c-0.14-1.24-0.62-2.2-1.4-2.77
				c-3.18-2.33-3.22-4.68-3.22-4.78h1.24h-0.62l0.62-0.01c0,0.08,0.08,1.86,2.71,3.8c1.06,0.78,1.72,2.03,1.9,3.63
				c0.36,3.18-1.2,7.29-3.97,10.49L290.71,503.02z"/>
		</g>
		<linearGradient id="SVGID_13_" gradientUnits="userSpaceOnUse" x1="291.922" y1="578.795" x2="291.922" y2="423.8968">
			<stop  offset="0" style="stop-color:#529DAD"/>
			<stop  offset="1" style="stop-color:#60BF91"/>
		</linearGradient>
		<path class="st14" d="M294.35,493.78c-0.39-1.56-1.2-2.72-2.35-3.35c-1.03-0.57-1.73-1.16-2.2-1.69l-0.56,1.19
			c0.54,0.52,1.23,1.07,2.17,1.58c0.84,0.46,1.45,1.35,1.75,2.56c0.64,2.59-0.13,6.15-1.97,9.26l-0.65,0.09l0.35,2.66l0.92-1.39
			C294.12,501.17,295.12,496.88,294.35,493.78z"/>
	</g>
</g>
</svg>
