<?xml version="1.0" encoding="UTF-8" standalone="no"?>
<svg
   xmlns:dc="http://purl.org/dc/elements/1.1/"
   xmlns:cc="http://creativecommons.org/ns#"
   xmlns:rdf="http://www.w3.org/1999/02/22-rdf-syntax-ns#"
   xmlns:svg="http://www.w3.org/2000/svg"
   xmlns="http://www.w3.org/2000/svg"
   xmlns:xlink="http://www.w3.org/1999/xlink"
   xmlns:sodipodi="http://sodipodi.sourceforge.net/DTD/sodipodi-0.dtd"
   xmlns:inkscape="http://www.inkscape.org/namespaces/inkscape"
   version="1.1"
   id="Layer_1"
   x="0px"
   y="0px"
   viewBox="0 0 1000 1000"
   style="enable-background:new 0 0 1000 1000;"
   xml:space="preserve"
   sodipodi:docname="Web3API_DAO_Logo_1.svg"
   inkscape:version="1.0.1 (1.0.1+r73)"><metadata
   id="metadata3131"><rdf:RDF><cc:Work
       rdf:about=""><dc:format>image/svg+xml</dc:format><dc:type
         rdf:resource="http://purl.org/dc/dcmitype/StillImage" /><dc:title></dc:title></cc:Work></rdf:RDF></metadata><defs
   id="defs3129"><linearGradient
     id="SVGID_1_-3"
     gradientUnits="userSpaceOnUse"
     x1="499.6022"
     y1="766.11938"
     x2="499.6022"
     y2="278.1326"><stop
       offset="0"
       style="stop-color:#519CAB"
       id="stop1631" /><stop
       offset="1"
       style="stop-color:#5FBF91"
       id="stop1633" /></linearGradient><linearGradient
     id="SVGID_2_-6"
     gradientUnits="userSpaceOnUse"
     x1="646.90833"
     y1="766.11938"
     x2="646.90833"
     y2="278.1326"><stop
       offset="0"
       style="stop-color:#519CAB"
       id="stop1638" /><stop
       offset="1"
       style="stop-color:#5FBF91"
       id="stop1640" /></linearGradient><linearGradient
     id="SVGID_3_-7"
     gradientUnits="userSpaceOnUse"
     x1="449.93341"
     y1="766.11938"
     x2="449.93341"
     y2="278.1326"><stop
       offset="0"
       style="stop-color:#519CAB"
       id="stop1645" /><stop
       offset="1"
       style="stop-color:#5FBF91"
       id="stop1647" /></linearGradient><linearGradient
     id="SVGID_4_"
     gradientUnits="userSpaceOnUse"
     x1="410.81119"
     y1="766.11938"
     x2="410.81119"
     y2="278.1326"><stop
       offset="0"
       style="stop-color:#519CAB"
       id="stop1652" /><stop
       offset="1"
       style="stop-color:#5FBF91"
       id="stop1654" /></linearGradient><linearGradient
     id="SVGID_5_"
     gradientUnits="userSpaceOnUse"
     x1="459.98611"
     y1="766.11938"
     x2="459.98611"
     y2="278.1326"><stop
       offset="0"
       style="stop-color:#519CAB"
       id="stop1659" /><stop
       offset="1"
       style="stop-color:#5FBF91"
       id="stop1661" /></linearGradient><linearGradient
     id="SVGID_6_"
     gradientUnits="userSpaceOnUse"
     x1="523.01318"
     y1="766.11938"
     x2="523.01318"
     y2="278.1326"><stop
       offset="0"
       style="stop-color:#519CAB"
       id="stop1666" /><stop
       offset="1"
       style="stop-color:#5FBF91"
       id="stop1668" /></linearGradient><linearGradient
     id="SVGID_7_"
     gradientUnits="userSpaceOnUse"
     x1="553.6123"
     y1="766.11938"
     x2="553.6123"
     y2="278.1326"><stop
       offset="0"
       style="stop-color:#519CAB"
       id="stop1673" /><stop
       offset="1"
       style="stop-color:#5FBF91"
       id="stop1675" /></linearGradient><linearGradient
     id="SVGID_8_"
     gradientUnits="userSpaceOnUse"
     x1="433.23929"
     y1="766.11938"
     x2="433.23929"
     y2="278.1326"><stop
       offset="0"
       style="stop-color:#519CAB"
       id="stop1682" /><stop
       offset="1"
       style="stop-color:#5FBF91"
       id="stop1684" /></linearGradient><linearGradient
     id="SVGID_9_"
     gradientUnits="userSpaceOnUse"
     x1="585.95502"
     y1="766.11938"
     x2="585.95502"
     y2="278.1326"><stop
       offset="0"
       style="stop-color:#519CAB"
       id="stop1689" /><stop
       offset="1"
       style="stop-color:#5FBF91"
       id="stop1691" /></linearGradient><linearGradient
     id="SVGID_10_"
     gradientUnits="userSpaceOnUse"
     x1="582.97852"
     y1="766.11938"
     x2="582.97852"
     y2="278.1326"><stop
       offset="0"
       style="stop-color:#519CAB"
       id="stop1698" /><stop
       offset="1"
       style="stop-color:#5FBF91"
       id="stop1700" /></linearGradient><linearGradient
     id="SVGID_11_"
     gradientUnits="userSpaceOnUse"
     x1="301.14951"
     y1="210.2686"
     x2="889.08228"
     y2="558.47467"><stop
       offset="0"
       style="stop-color:#5FBF91"
       id="stop1707" /><stop
       offset="0.5"
       style="stop-color:#5FBF91;stop-opacity:0"
       id="stop1709" /><stop
       offset="1"
       style="stop-color:#5FBF91"
       id="stop1711" /></linearGradient><linearGradient
     id="SVGID_12_"
     gradientUnits="userSpaceOnUse"
     x1="340.84259"
     y1="167.9814"
     x2="883.32031"
     y2="489.26651"><stop
       offset="0"
       style="stop-color:#5FBF91"
       id="stop1716" /><stop
       offset="0.5"
       style="stop-color:#5FBF91;stop-opacity:0"
       id="stop1718" /><stop
       offset="1"
       style="stop-color:#5FBF91"
       id="stop1720" /></linearGradient><linearGradient
     id="SVGID_13_"
     gradientUnits="userSpaceOnUse"
     x1="380.19971"
     y1="133.49271"
     x2="884.11249"
     y2="431.93759"><stop
       offset="0"
       style="stop-color:#5FBF91"
       id="stop1725" /><stop
       offset="0.5"
       style="stop-color:#5FBF91;stop-opacity:0"
       id="stop1727" /><stop
       offset="1"
       style="stop-color:#5FBF91"
       id="stop1729" /></linearGradient><linearGradient
     id="SVGID_14_"
     gradientUnits="userSpaceOnUse"
     x1="658.07483"
     y1="831.28259"
     x2="118.8251"
     y2="512.41132"><stop
       offset="0"
       style="stop-color:#5FBF91"
       id="stop1736" /><stop
       offset="0.5"
       style="stop-color:#5FBF91;stop-opacity:0"
       id="stop1738" /><stop
       offset="1"
       style="stop-color:#5FBF91"
       id="stop1740" /></linearGradient><linearGradient
     id="SVGID_15_"
     gradientUnits="userSpaceOnUse"
     x1="618.72693"
     y1="866.45837"
     x2="116.2359"
     y2="569.32318"><stop
       offset="0"
       style="stop-color:#5FBF91"
       id="stop1745" /><stop
       offset="0.5"
       style="stop-color:#5FBF91;stop-opacity:0"
       id="stop1747" /><stop
       offset="1"
       style="stop-color:#5FBF91"
       id="stop1749" /></linearGradient><linearGradient
     id="SVGID_16_"
     gradientUnits="userSpaceOnUse"
     x1="696.09967"
     y1="788.00012"
     x2="113.5417"
     y2="443.51941"><stop
       offset="0"
       style="stop-color:#5FBF91"
       id="stop1754" /><stop
       offset="0.5"
       style="stop-color:#5FBF91;stop-opacity:0"
       id="stop1756" /><stop
       offset="1"
       style="stop-color:#5FBF91"
       id="stop1758" /></linearGradient><linearGradient
     inkscape:collect="always"
     xlink:href="#SVGID_1_"
     id="linearGradient5378"
     gradientUnits="userSpaceOnUse"
     x1="689.81708"
     y1="573.3833"
     x2="689.81708"
     y2="457.1709" /><linearGradient
     inkscape:collect="always"
     xlink:href="#SVGID_2_"
     id="linearGradient5380"
     gradientUnits="userSpaceOnUse"
     x1="762.29132"
     y1="573.3833"
     x2="762.29132"
     y2="457.1709" /><linearGradient
     inkscape:collect="always"
     xlink:href="#SVGID_3_"
     id="linearGradient5382"
     gradientUnits="userSpaceOnUse"
     x1="806.45428"
     y1="573.3833"
     x2="806.45428"
     y2="457.1709" /><linearGradient
     id="SVGID_1_-4"
     gradientUnits="userSpaceOnUse"
     x1="499.6022"
     y1="766.11938"
     x2="499.6022"
     y2="278.1326"
     gradientTransform="matrix(1.0009768,0,0,1.0009768,2.3565218,-4.7144183)"><stop
       offset="0"
       style="stop-color:#519CAB"
       id="stop1631-3" /><stop
       offset="1"
       style="stop-color:#5FBF91"
       id="stop1633-0" /></linearGradient><linearGradient
     id="SVGID_15_-7"
     gradientUnits="userSpaceOnUse"
     x1="618.72693"
     y1="866.45837"
     x2="116.2359"
     y2="569.32318"
     gradientTransform="matrix(0.32976549,0,0,0.32976549,337.7247,175.01267)"><stop
       offset="0"
       style="stop-color:#5FBF91"
       id="stop1745-8" /><stop
       offset="0.5"
       style="stop-color:#5FBF91;stop-opacity:0"
       id="stop1747-6" /><stop
       offset="1"
       style="stop-color:#5FBF91"
       id="stop1749-8" /></linearGradient><linearGradient
     id="SVGID_16_-4"
     gradientUnits="userSpaceOnUse"
     x1="696.09967"
     y1="788.00012"
     x2="113.5417"
     y2="443.51941"
     gradientTransform="matrix(0.31601055,0,0,0.31601055,342.77585,188.47407)"><stop
       offset="0"
       style="stop-color:#5FBF91"
       id="stop1754-3" /><stop
       offset="0.5"
       style="stop-color:#5FBF91;stop-opacity:0"
       id="stop1756-1" /><stop
       offset="1"
       style="stop-color:#5FBF91"
       id="stop1758-4" /></linearGradient><linearGradient
     inkscape:collect="always"
     xlink:href="#SVGID_1_"
     id="linearGradient5923"
     gradientUnits="userSpaceOnUse"
     x1="689.81708"
     y1="573.3833"
     x2="689.81708"
     y2="457.1709" /><linearGradient
     inkscape:collect="always"
     xlink:href="#SVGID_2_"
     id="linearGradient5925"
     gradientUnits="userSpaceOnUse"
     x1="762.29132"
     y1="573.3833"
     x2="762.29132"
     y2="457.1709" /><linearGradient
     inkscape:collect="always"
     xlink:href="#SVGID_3_"
     id="linearGradient5927"
     gradientUnits="userSpaceOnUse"
     x1="806.45428"
     y1="573.3833"
     x2="806.45428"
     y2="457.1709" /></defs><sodipodi:namedview
   pagecolor="#ffffff"
   bordercolor="#666666"
   borderopacity="1"
   objecttolerance="10"
   gridtolerance="10"
   guidetolerance="10"
   inkscape:pageopacity="0"
   inkscape:pageshadow="2"
   inkscape:window-width="1920"
   inkscape:window-height="1017"
   id="namedview3127"
   showgrid="false"
   showguides="true"
   inkscape:guide-bbox="true"
   inkscape:zoom="0.60881894"
   inkscape:cx="293.73233"
   inkscape:cy="403.53189"
   inkscape:window-x="0"
   inkscape:window-y="26"
   inkscape:window-maximized="1"
   inkscape:current-layer="Layer_1" />
<style
   type="text/css"
   id="style3011">
	.st0{fill:#1B262C;}
	.st1{fill:#FFFFFF;}
	.st2{fill:url(#SVGID_1_);}
	.st3{fill:url(#SVGID_2_);}
	.st4{fill:url(#SVGID_3_);}
	.st5{fill:url(#SVGID_4_);}
	.st6{fill:url(#SVGID_5_);}
	.st7{fill:url(#SVGID_6_);}
	.st8{fill:url(#SVGID_7_);}
	.st9{fill:url(#SVGID_8_);}
	.st10{fill:url(#SVGID_9_);}
	.st11{fill:url(#SVGID_10_);}
	.st12{fill:url(#SVGID_11_);}
	.st13{fill:url(#SVGID_12_);}
	.st14{fill:url(#SVGID_13_);}
</style>
<rect
   x="-1.0857415"
   y="-0.38261133"
   class="st0"
   width="999.66998"
   height="1000.71"
   id="rect3013" />
<g
   id="g3124"
   transform="translate(-12.08307,-1.215673)">
	<g
   id="g3046"
   transform="translate(-76.11157,22.064506)">
		<g
   id="g3044">
			<path
   class="st1"
   d="m 365.22,465.19 h 8.73 l 19.03,56.73 1,3.79 h 0.21 l 0.79,-3.89 18.03,-56.62 h 8.73 l 17.98,56.62 0.89,3.89 h 0.16 l 1,-4.15 18.98,-56.36 h 8.78 l -24.5,71.5 h -8.2 l -19.45,-60.04 -19.51,60.04 h -8.15 z"
   id="path3015" />
			<path
   class="st1"
   d="m 521.16,511.88 h -45.11 c 1,11.57 9.52,18.77 18.77,18.77 7.41,0 13.2,-3.36 15.77,-9.83 h 8.94 c -3.15,9.78 -12.67,17.35 -24.55,17.35 -15.25,0 -27.02,-12.57 -27.02,-28.23 0,-15.67 11.78,-28.23 27.02,-28.23 15.25,0 26.34,12.57 26.34,26.87 0,0.88 -0.06,1.56 -0.16,3.3 z m -8.05,-7.15 c -0.53,-8.25 -8.57,-15.46 -18.24,-15.46 -8.62,0 -16.51,5.63 -18.45,15.46 z"
   id="path3017" />
			<path
   class="st1"
   d="m 541.45,524.65 v 12.04 h -7.73 v -74.03 h 8.1 v 25.08 l -0.21,7.41 c 3.52,-7.52 11.36,-13.41 21.08,-13.41 15.09,0 26.5,12.57 26.5,28.18 0,15.72 -11.46,28.23 -26.39,28.23 -9.1,0.02 -17.46,-5.14 -21.35,-13.5 z m 39.75,-14.72 c 0,-11.99 -8.83,-20.66 -19.77,-20.66 -10.88,0 -19.72,9.1 -19.72,20.66 0,11.88 8.94,20.71 19.77,20.71 10.78,0.01 19.72,-8.46 19.72,-20.71 z"
   id="path3019" />
			<path
   class="st1"
   d="m 597.6,512.61 h 12.99 c 0.32,10.46 7.57,13.77 14.09,13.77 7.04,0 12.99,-5.42 12.99,-12.78 0,-6.94 -5.52,-12.41 -14.67,-12.41 h -9.36 v -6.57 l 15.04,-18.61 0.11,-0.21 h -27.34 v -10.62 h 43.11 v 6.83 l -16.61,19.45 -0.37,0.53 c 13.93,1.16 23.24,7.47 23.24,21.98 0,13.77 -11.3,24.34 -26.45,24.34 -13.52,0.01 -26.51,-7.14 -26.77,-25.7 z"
   id="path3021" />
			<linearGradient
   id="SVGID_1_"
   gradientUnits="userSpaceOnUse"
   x1="689.81708"
   y1="573.3833"
   x2="689.81708"
   y2="457.1709">
				<stop
   offset="0"
   style="stop-color:#529DAD"
   id="stop3023" />
				<stop
   offset="1"
   style="stop-color:#60BF91"
   id="stop3025" />
			</linearGradient>
			<path
   class="st2"
   d="m 706.27,522.87 h -32.91 l -5.68,13.83 h -13.83 l 29.76,-71.55 h 12.41 l 29.76,71.55 h -13.83 z m -4.47,-10.94 -11.57,-28.18 -0.32,-1.74 h -0.16 l -0.42,1.74 -11.51,28.18 z"
   id="path3028"
   style="fill:url(#linearGradient5923)" />
			<linearGradient
   id="SVGID_2_"
   gradientUnits="userSpaceOnUse"
   x1="762.29132"
   y1="573.3833"
   x2="762.29132"
   y2="457.1709">
				<stop
   offset="0"
   style="stop-color:#529DAD"
   id="stop3030" />
				<stop
   offset="1"
   style="stop-color:#60BF91"
   id="stop3032" />
			</linearGradient>
			<path
   class="st3"
   d="m 734.82,465.19 h 30.13 c 14.46,0 24.82,10.15 24.82,24.08 0,14.72 -10.25,24.6 -24.6,24.6 h -17.24 v 22.82 h -13.09 v -71.5 z m 29.71,37.01 c 6.83,0 12.14,-5.57 12.14,-12.93 0,-6.52 -5.31,-12.41 -12.25,-12.41 h -16.51 v 25.34 z"
   id="path3035"
   style="fill:url(#linearGradient5925)" />
			<linearGradient
   id="SVGID_3_"
   gradientUnits="userSpaceOnUse"
   x1="806.45428"
   y1="573.3833"
   x2="806.45428"
   y2="457.1709">
				<stop
   offset="0"
   style="stop-color:#529DAD"
   id="stop3037" />
				<stop
   offset="1"
   style="stop-color:#60BF91"
   id="stop3039" />
			</linearGradient>
			<path
   class="st4"
   d="M 799.91,465.19 H 813 v 71.5 h -13.09 z"
   id="path3042"
   style="fill:url(#linearGradient5927)" />
		</g>
	</g>
	
</g>
<text
   xml:space="preserve"
   style="font-size:86.3443px;line-height:1.25;font-family:'Ubuntu Mono';-inkscape-font-specification:'Ubuntu Mono';letter-spacing:0px;word-spacing:0px;fill:#529dad;fill-opacity:1;stroke-width:2.15861"
   x="405.25571"
   y="635.67572"
   id="text4920"><tspan
     sodipodi:role="line"
     id="tspan4918"
     x="405.25571"
     y="635.67572"
     style="font-style:normal;font-variant:normal;font-weight:normal;font-stretch:normal;font-family:Montserott;-inkscape-font-specification:Montserott;fill:#529dad;fill-opacity:1;stroke-width:2.15861">DAO</tspan></text><g
   id="g1765"
   transform="matrix(0.31588031,0,0,0.31588031,343.54826,186.69981)"><g
     id="g1705"><g
       id="g1680"><linearGradient
         id="linearGradient4988"
         gradientUnits="userSpaceOnUse"
         x1="499.6022"
         y1="766.11938"
         x2="499.6022"
         y2="278.1326"><stop
           offset="0"
           style="stop-color:#519CAB"
           id="stop4984" /><stop
           offset="1"
           style="stop-color:#5FBF91"
           id="stop4986" /></linearGradient><linearGradient
         id="linearGradient4995"
         gradientUnits="userSpaceOnUse"
         x1="646.90833"
         y1="766.11938"
         x2="646.90833"
         y2="278.1326"><stop
           offset="0"
           style="stop-color:#519CAB"
           id="stop4991" /><stop
           offset="1"
           style="stop-color:#5FBF91"
           id="stop4993" /></linearGradient><path
         class="st2"
         d="m 741.68,381.89 c 0,-22.15 -18.02,-40.18 -40.17,-40.18 -22.15,0 -40.18,18.02 -40.18,40.18 0,18.02 12,33.12 28.36,38.2 v 164.09 c 0,17.27 -9.3,33.37 -24.26,42.01 l -113.29,65.41 11.82,20.46 113.29,-65.41 c 22.25,-12.85 36.07,-36.79 36.07,-62.47 V 420.09 c 16.36,-5.08 28.36,-20.19 28.36,-38.2 z m -40.18,16.55 c -9.12,0 -16.55,-7.42 -16.55,-16.55 0,-9.12 7.42,-16.55 16.55,-16.55 9.13,0 16.54,7.42 16.54,16.55 0,9.12 -7.41,16.55 -16.54,16.55 z"
         id="path1643"
         style="fill:url(#linearGradient5378)" /><linearGradient
         id="linearGradient5002"
         gradientUnits="userSpaceOnUse"
         x1="449.93341"
         y1="766.11938"
         x2="449.93341"
         y2="278.1326"><stop
           offset="0"
           style="stop-color:#519CAB"
           id="stop4998" /><stop
           offset="1"
           style="stop-color:#5FBF91"
           id="stop5000" /></linearGradient><path
         class="st3"
         d="m 333.84,381.89 c 0,-2.12 -0.31,-4.16 -0.63,-6.2 l 140.12,-82.24 c 14.96,-8.63 33.55,-8.63 48.51,0 L 634.57,358.53 646.39,338.07 533.65,273 c -22.25,-12.85 -49.89,-12.84 -72.21,0.04 L 322.8,354.4 c -7.33,-7.77 -17.64,-12.68 -29.14,-12.68 -22.15,0 -40.17,18.02 -40.17,40.18 0,22.15 18.02,40.18 40.17,40.18 22.15,-0.01 40.18,-18.03 40.18,-40.19 z m -56.72,0 c 0,-9.12 7.42,-16.55 16.54,-16.55 9.12,0 16.55,7.42 16.55,16.55 0,9.12 -7.42,16.55 -16.55,16.55 -9.12,0 -16.54,-7.43 -16.54,-16.55 z"
         id="path1650"
         style="fill:url(#linearGradient5380)" /><linearGradient
         id="linearGradient5009"
         gradientUnits="userSpaceOnUse"
         x1="410.81119"
         y1="766.11938"
         x2="410.81119"
         y2="278.1326"><stop
           offset="0"
           style="stop-color:#519CAB"
           id="stop5005" /><stop
           offset="1"
           style="stop-color:#5FBF91"
           id="stop5007" /></linearGradient><path
         class="st4"
         d="m 499.6,695.18 c -11.36,0 -21.59,4.79 -28.9,12.4 L 329.74,626.19 c -14.96,-8.64 -24.26,-24.74 -24.26,-42.01 V 452 h -23.63 v 132.18 c 0,25.69 13.82,49.62 36.07,62.47 l 142.18,82.09 c -0.36,2.16 -0.67,4.35 -0.67,6.62 0,22.15 18.02,40.18 40.17,40.18 22.15,0 40.18,-18.02 40.18,-40.18 0,-22.16 -18.03,-40.18 -40.18,-40.18 z m 0,56.72 c -9.12,0 -16.54,-7.42 -16.54,-16.55 0,-9.13 7.42,-16.55 16.54,-16.55 9.12,0 16.55,7.42 16.55,16.55 0,9.13 -7.43,16.55 -16.55,16.55 z"
         id="path1657"
         style="fill:url(#linearGradient5382)" /><linearGradient
         id="linearGradient5016"
         gradientUnits="userSpaceOnUse"
         x1="459.98611"
         y1="766.11938"
         x2="459.98611"
         y2="278.1326"><stop
           offset="0"
           style="stop-color:#519CAB"
           id="stop5012" /><stop
           offset="1"
           style="stop-color:#5FBF91"
           id="stop5014" /></linearGradient><path
         class="st5"
         d="m 459.99,538.01 c -11.93,0 -21.6,9.67 -21.6,21.6 0,11.93 9.67,21.59 21.6,21.59 11.93,0 21.6,-9.67 21.6,-21.59 -0.01,-11.93 -9.68,-21.6 -21.6,-21.6 z"
         id="path1664"
         style="fill:url(#SVGID_4_)" /><linearGradient
         id="linearGradient5023"
         gradientUnits="userSpaceOnUse"
         x1="523.01318"
         y1="766.11938"
         x2="523.01318"
         y2="278.1326"><stop
           offset="0"
           style="stop-color:#519CAB"
           id="stop5019" /><stop
           offset="1"
           style="stop-color:#5FBF91"
           id="stop5021" /></linearGradient><path
         class="st6"
         d="m 518.94,482.33 v 10.43 h 8.16 v -10.43 c 5.42,-0.73 10.36,-2.82 14.5,-5.98 l 7.36,7.36 5.77,-5.77 -7.36,-7.36 c 3.17,-4.14 5.26,-9.08 5.99,-14.5 h 10.43 v -8.15 h -10.43 c -0.73,-5.42 -2.82,-10.36 -5.99,-14.5 l 7.36,-7.36 -5.77,-5.77 -7.36,7.36 c -4.14,-3.17 -9.08,-5.26 -14.5,-5.98 v -10.43 h -8.16 v 10.43 c -5.42,0.73 -10.36,2.82 -14.5,5.98 l -7.36,-7.36 -5.77,5.77 7.36,7.36 c -3.17,4.14 -5.26,9.08 -5.98,14.5 h -10.43 v 8.15 h 10.43 c 0.73,5.42 2.82,10.36 5.98,14.5 l -7.36,7.36 5.77,5.77 7.36,-7.36 c 4.14,3.16 9.08,5.25 14.5,5.98 z"
         id="path1671"
         style="fill:url(#SVGID_5_)" /><linearGradient
         id="linearGradient5030"
         gradientUnits="userSpaceOnUse"
         x1="553.6123"
         y1="766.11938"
         x2="553.6123"
         y2="278.1326"><stop
           offset="0"
           style="stop-color:#519CAB"
           id="stop5026" /><stop
           offset="1"
           style="stop-color:#5FBF91"
           id="stop5028" /></linearGradient><path
         class="st7"
         d="m 557.07,580.44 c 34.19,-23.13 34.69,-63.6 34.69,-63.6 -3.52,-24.39 -18.72,8.45 -57.82,27.4 -37.92,18.39 -11.06,59.33 23.13,36.2 z"
         id="path1678"
         style="fill:url(#SVGID_6_)" /><path
         class="st1"
         d="m 502.44455,349.9617 c -81.10915,0 -147.09354,65.98438 -147.09354,147.09353 0,81.10915 65.98439,147.08352 147.09354,147.08352 81.10914,0 147.09353,-65.98439 147.09353,-147.08352 0,-81.09914 -65.98439,-147.09353 -147.09353,-147.09353 z m 0,262.63627 c -63.71218,0 -115.55275,-51.84059 -115.55275,-115.54274 0,-63.72218 51.84057,-115.55277 115.55275,-115.55277 63.71216,0 115.55275,51.84059 115.55275,115.55277 0,63.71217 -51.83057,115.54274 -115.55275,115.54274 z"
         id="path1636"
         style="fill:url(#SVGID_1_-4);stroke-width:1.00098" /></g><linearGradient
       id="linearGradient5038"
       gradientUnits="userSpaceOnUse"
       x1="433.23929"
       y1="766.11938"
       x2="433.23929"
       y2="278.1326"><stop
         offset="0"
         style="stop-color:#519CAB"
         id="stop5034" /><stop
         offset="1"
         style="stop-color:#5FBF91"
         id="stop5036" /></linearGradient><path
       class="st8"
       d="m 455.52,444.49 c -1.85,-15.17 -24.08,-14.61 -26.06,0.55 -0.95,7.32 -0.94,16.36 -8.09,25.36 -14.12,17.8 -14.31,37.37 0.74,40.33 15.05,2.96 23.44,-16.29 23.47,-31.83 0.03,-15.54 10.83,-21.22 10.04,-33.31 -0.02,-0.38 -0.05,-0.75 -0.1,-1.1 z"
       id="path1687"
       style="fill:url(#SVGID_7_)" /><g
       id="g1696"><linearGradient
         id="linearGradient5045"
         gradientUnits="userSpaceOnUse"
         x1="585.95502"
         y1="766.11938"
         x2="585.95502"
         y2="278.1326"><stop
           offset="0"
           style="stop-color:#519CAB"
           id="stop5041" /><stop
           offset="1"
           style="stop-color:#5FBF91"
           id="stop5043" /></linearGradient><path
         class="st9"
         d="m 579.16,527.41 v -8.45 h 2.08 c 7.04,-8.95 10.91,-19.75 9.97,-28.1 -0.44,-3.92 -1.96,-6.93 -4.4,-8.72 -10.02,-7.35 -10.14,-14.76 -10.14,-15.07 h 3.91 -1.95 l 1.95,-0.03 c 0,0.24 0.24,5.87 8.54,11.96 3.34,2.45 5.41,6.39 5.97,11.42 1.13,10 -3.78,22.97 -12.5,33.04 z"
         id="path1694"
         style="fill:url(#SVGID_8_)" /></g><linearGradient
       id="linearGradient5053"
       gradientUnits="userSpaceOnUse"
       x1="582.97852"
       y1="766.11938"
       x2="582.97852"
       y2="278.1326"><stop
         offset="0"
         style="stop-color:#519CAB"
         id="stop5049" /><stop
         offset="1"
         style="stop-color:#5FBF91"
         id="stop5051" /></linearGradient><path
       class="st10"
       d="m 590.63,498.3 c -1.22,-4.91 -3.78,-8.55 -7.41,-10.54 -3.26,-1.79 -5.44,-3.65 -6.93,-5.31 l -1.77,3.75 c 1.69,1.65 3.87,3.36 6.82,4.98 2.65,1.46 4.55,4.24 5.5,8.07 2.03,8.16 -0.41,19.38 -6.21,29.16 l -2.06,0.27 1.1,8.38 2.88,-4.37 c 7.34,-11.13 10.51,-24.62 8.08,-34.39 z"
       id="path1703"
       style="fill:url(#SVGID_9_)" /></g><g
     id="g1734"><linearGradient
       id="linearGradient5063"
       gradientUnits="userSpaceOnUse"
       x1="301.14951"
       y1="210.2686"
       x2="889.08228"
       y2="558.47467"><stop
         offset="0"
         style="stop-color:#5FBF91"
         id="stop5057" /><stop
         offset="0.5"
         style="stop-color:#5FBF91;stop-opacity:0"
         id="stop5059" /><stop
         offset="1"
         style="stop-color:#5FBF91"
         id="stop5061" /></linearGradient><path
       class="st11"
       d="m 762.48,363.22 c -0.01,-0.58 -0.03,-1.15 -0.1,-1.72 -0.06,-0.57 -0.1,-1.15 -0.21,-1.71 -0.7,-4.55 -2.57,-8.92 -5.38,-12.58 -1.4,-1.83 -3.04,-3.48 -4.86,-4.9 -0.91,-0.7 -1.86,-1.37 -2.85,-1.96 -0.97,-0.59 -1.87,-1.09 -2.8,-1.64 L 724,325.79 l -89.12,-51.68 -89.32,-51.34 -22.33,-12.83 -5.58,-3.21 -2.79,-1.6 -1.4,-0.8 -1.52,-0.81 c -4.13,-2.05 -8.78,-3.04 -13.38,-2.85 -4.6,0.17 -9.17,1.57 -13.08,3.88 l -11.15,6.45 -22.23,13 -88.92,52.04 -44.37,26.18 -22.18,13.09 -22.14,13.16 22.47,-12.59 22.43,-12.66 44.86,-25.33 89.53,-50.98 22.38,-12.75 11.17,-6.41 c 3.48,-2.04 7.37,-3.2 11.36,-3.34 3.98,-0.15 7.98,0.72 11.53,2.5 l 1.31,0.71 1.39,0.81 2.79,1.62 5.57,3.23 22.28,12.92 89.12,51.68 89.32,51.34 22.33,12.84 c 0.92,0.53 1.89,1.07 2.76,1.6 0.86,0.51 1.67,1.07 2.46,1.67 1.57,1.22 2.99,2.63 4.2,4.21 2.43,3.14 4.06,6.91 4.68,10.84 0.33,1.96 0.32,3.92 0.32,6.13 l 0.01,6.44 0.04,12.88 0.15,25.76 0.61,103.02 0.49,51.51 0.25,25.76 0.33,25.76 0.33,-25.76 0.25,-25.76 0.49,-51.51 0.61,-103.02 0.15,-25.76 0.04,-12.88 0.01,-6.44 c -0.02,-1.11 0.02,-2.1 -0.03,-3.29 z"
       id="path1714"
       style="fill:url(#SVGID_10_)" /><linearGradient
       id="linearGradient5072"
       gradientUnits="userSpaceOnUse"
       x1="340.84259"
       y1="167.9814"
       x2="883.32031"
       y2="489.26651"><stop
         offset="0"
         style="stop-color:#5FBF91"
         id="stop5066" /><stop
         offset="0.5"
         style="stop-color:#5FBF91;stop-opacity:0"
         id="stop5068" /><stop
         offset="1"
         style="stop-color:#5FBF91"
         id="stop5070" /></linearGradient><path
       class="st12"
       d="m 791.13,338.94 c -1.1,-3.79 -3.06,-7.31 -5.6,-10.33 -1.29,-1.49 -2.74,-2.86 -4.31,-4.07 l -1.2,-0.88 -1.25,-0.8 c -0.84,-0.53 -1.57,-0.93 -2.36,-1.4 l -9.3,-5.48 -18.63,-10.9 -37.27,-21.78 -74.68,-43.32 -74.85,-43.02 -37.5,-21.38 -9.38,-5.35 c -0.74,-0.44 -1.64,-0.91 -2.52,-1.37 -0.91,-0.41 -1.81,-0.84 -2.75,-1.16 -1.87,-0.68 -3.81,-1.2 -5.78,-1.45 -1.97,-0.27 -3.97,-0.34 -5.95,-0.21 -1.98,0.16 -3.94,0.51 -5.85,1.05 -1.91,0.53 -3.75,1.32 -5.5,2.24 -0.91,0.48 -1.66,0.93 -2.43,1.39 l -2.32,1.37 c -24.81,14.58 -49.56,29.27 -74.29,43.99 l -37.02,22.22 -18.51,11.11 -12.97,7.89 c -1.13,-1.85 -3.15,-3.08 -5.47,-3.08 -3.54,0 -6.41,2.87 -6.41,6.41 0,3.54 2.87,6.41 6.41,6.41 3.54,0 6.41,-2.87 6.41,-6.41 0,-1.12 -0.29,-2.16 -0.79,-3.08 l 13.31,-7.29 18.88,-10.47 37.75,-20.93 c 25.11,-14.06 50.21,-28.15 75.24,-42.34 l 2.35,-1.33 c 0.78,-0.45 1.58,-0.9 2.27,-1.25 1.44,-0.73 2.94,-1.35 4.51,-1.74 1.56,-0.41 3.16,-0.67 4.76,-0.77 1.61,-0.08 3.22,0.01 4.81,0.26 1.59,0.23 3.15,0.67 4.65,1.23 0.76,0.26 1.48,0.62 2.2,0.96 0.7,0.38 1.4,0.75 2.2,1.23 l 9.32,5.45 37.27,21.78 74.68,43.32 74.86,43.01 37.5,21.38 18.75,10.68 9.39,5.31 c 0.76,0.44 1.61,0.9 2.3,1.32 l 1.03,0.63 0.99,0.7 c 1.3,0.97 2.5,2.06 3.58,3.27 2.13,2.44 3.8,5.31 4.76,8.42 0.49,1.55 0.84,3.15 0.98,4.78 0.06,0.4 0.07,0.81 0.08,1.22 0.02,0.41 0.04,0.8 0.04,1.27 l 0.02,2.7 0.22,21.58 0.54,43.17 0.73,43.17 0.37,21.58 0.49,21.58 0.49,-21.58 0.37,-21.58 0.73,-43.17 0.54,-43.17 0.22,-21.58 0.02,-2.7 c -0.01,-0.9 0,-1.94 -0.09,-2.9 -0.1,-1.98 -0.48,-3.92 -1.04,-5.81 z"
       id="path1723"
       style="fill:url(#SVGID_11_)" /><linearGradient
       id="linearGradient5081"
       gradientUnits="userSpaceOnUse"
       x1="380.19971"
       y1="133.49271"
       x2="884.11249"
       y2="431.93759"><stop
         offset="0"
         style="stop-color:#5FBF91"
         id="stop5075" /><stop
         offset="0.5"
         style="stop-color:#5FBF91;stop-opacity:0"
         id="stop5077" /><stop
         offset="1"
         style="stop-color:#5FBF91"
         id="stop5079" /></linearGradient><path
       class="st13"
       d="m 816,391 c -0.29,0 -0.57,0.02 -0.84,0.06 l 0.19,-10.52 0.25,-17.9 0.24,-17.9 0.12,-8.95 c 0.01,-1.5 0.07,-2.95 0.01,-4.53 -0.07,-1.55 -0.25,-3.1 -0.6,-4.61 -1.3,-6.09 -4.89,-11.64 -9.84,-15.46 -1.23,-0.94 -2.61,-1.8 -3.88,-2.53 l -3.86,-2.27 -7.72,-4.54 -30.86,-18.16 C 718.06,259.47 676.74,235.55 635.42,211.63 l -62.08,-35.71 -31.09,-17.77 -15.55,-8.88 -7.79,-4.41 -3.9,-2.21 -1.97,-1.1 c -0.71,-0.37 -1.4,-0.75 -2.14,-1.06 -5.8,-2.63 -12.51,-3.05 -18.59,-1.32 -1.52,0.44 -3,1 -4.42,1.69 -0.71,0.34 -1.4,0.74 -2.08,1.11 l -1.93,1.14 -7.72,4.54 -30.86,18.17 -30.77,18.33 -15.38,9.17 -9.91,5.97 c -1.13,-1.81 -3.14,-3.02 -5.43,-3.02 -3.54,0 -6.41,2.87 -6.41,6.41 0,3.54 2.87,6.41 6.41,6.41 3.54,0 6.41,-2.87 6.41,-6.41 0,-1.17 -0.32,-2.26 -0.86,-3.2 l 10.12,-5.6 15.63,-8.74 31.26,-17.48 31.17,-17.64 7.79,-4.41 1.95,-1.1 c 0.64,-0.34 1.24,-0.68 1.89,-0.97 1.27,-0.59 2.6,-1.07 3.96,-1.44 5.42,-1.44 11.34,-0.96 16.39,1.43 0.64,0.27 1.24,0.63 1.86,0.96 l 1.92,1.12 3.86,2.27 7.72,4.54 15.46,9.02 30.93,18.04 61.97,35.91 c 41.38,23.83 82.75,47.65 124.3,71.18 l 31.16,17.65 7.79,4.41 3.9,2.21 c 1.33,0.74 2.5,1.44 3.66,2.29 4.56,3.39 7.92,8.41 9.24,13.98 0.36,1.39 0.56,2.81 0.67,4.24 0.09,1.41 0.08,2.94 0.11,4.42 l 0.12,8.95 0.24,17.9 0.25,17.9 0.19,10.56 c -3.34,0.53 -5.89,3.42 -5.89,6.9 0,3.87 3.13,7 7,7 3.87,0 7,-3.13 7,-7 C 823,394.13 819.87,391 816,391 Z"
       id="path1732"
       style="fill:url(#SVGID_12_)" /></g><g
     id="g1763"><linearGradient
       id="linearGradient5091"
       gradientUnits="userSpaceOnUse"
       x1="658.07483"
       y1="831.28259"
       x2="118.8251"
       y2="512.41132"><stop
         offset="0"
         style="stop-color:#5FBF91"
         id="stop5085" /><stop
         offset="0.5"
         style="stop-color:#5FBF91;stop-opacity:0"
         id="stop5087" /><stop
         offset="1"
         style="stop-color:#5FBF91"
         id="stop5089" /></linearGradient><path
       class="st14"
       d="m 665.77,732.37 c -3.54,0 -6.41,2.87 -6.41,6.41 0,1.25 0.36,2.41 0.98,3.4 l -13.51,7.39 -18.88,10.47 -37.75,20.95 c -25.11,14.06 -50.21,28.15 -75.24,42.34 l -2.35,1.33 c -0.78,0.45 -1.58,0.9 -2.27,1.25 -1.44,0.73 -2.94,1.35 -4.51,1.75 -1.56,0.41 -3.16,0.67 -4.76,0.77 -1.61,0.08 -3.22,-0.01 -4.81,-0.26 -1.59,-0.23 -3.15,-0.67 -4.65,-1.23 -0.76,-0.26 -1.48,-0.62 -2.2,-0.96 -0.7,-0.38 -1.4,-0.75 -2.2,-1.23 l -9.32,-5.45 -37.27,-21.78 -74.68,-43.32 -74.86,-43.01 -37.5,-21.38 -18.75,-10.68 -9.39,-5.31 c -0.76,-0.44 -1.61,-0.9 -2.3,-1.32 l -1.03,-0.63 -0.99,-0.7 c -1.3,-0.97 -2.5,-2.06 -3.58,-3.27 -2.13,-2.44 -3.8,-5.31 -4.76,-8.42 -0.49,-1.55 -0.84,-3.15 -0.98,-4.78 -0.06,-0.4 -0.07,-0.81 -0.08,-1.22 -0.02,-0.41 -0.04,-0.8 -0.04,-1.27 l -0.02,-2.7 -0.22,-21.58 -0.54,-43.17 -0.73,-43.17 -0.37,-21.58 -0.49,-21.58 -0.49,21.58 -0.37,21.58 -0.73,43.17 -0.54,43.17 -0.22,21.58 -0.02,2.7 c 0.01,0.9 0,1.94 0.09,2.9 0.13,1.96 0.52,3.91 1.08,5.79 1.1,3.79 3.06,7.31 5.6,10.33 1.29,1.49 2.74,2.86 4.31,4.07 l 1.2,0.88 1.25,0.8 c 0.84,0.53 1.57,0.93 2.36,1.4 l 9.3,5.48 18.63,10.9 37.27,21.78 74.68,43.32 74.85,43.02 37.5,21.38 9.38,5.35 c 0.74,0.44 1.63,0.91 2.52,1.37 0.91,0.41 1.81,0.84 2.75,1.16 1.87,0.68 3.81,1.2 5.78,1.45 1.97,0.27 3.97,0.34 5.95,0.21 1.98,-0.16 3.94,-0.51 5.85,-1.05 1.91,-0.53 3.75,-1.32 5.5,-2.24 0.91,-0.48 1.66,-0.93 2.43,-1.39 l 2.32,-1.37 c 24.81,-14.58 49.56,-29.27 74.29,-43.99 l 37.02,-22.22 18.51,-11.11 13.17,-8.01 c 1.16,1.68 3.09,2.78 5.28,2.78 3.54,0 6.41,-2.87 6.41,-6.41 -0.03,-3.55 -2.9,-6.42 -6.45,-6.42 z"
       id="path1743"
       style="fill:url(#SVGID_13_)" /><linearGradient
       id="linearGradient5100"
       gradientUnits="userSpaceOnUse"
       x1="618.72693"
       y1="866.45837"
       x2="116.2359"
       y2="569.32318"><stop
         offset="0"
         style="stop-color:#5FBF91"
         id="stop5094" /><stop
         offset="0.5"
         style="stop-color:#5FBF91;stop-opacity:0"
         id="stop5096" /><stop
         offset="1"
         style="stop-color:#5FBF91"
         id="stop5098" /></linearGradient><linearGradient
       id="linearGradient5109"
       gradientUnits="userSpaceOnUse"
       x1="696.09967"
       y1="788.00012"
       x2="113.5417"
       y2="443.51941"><stop
         offset="0"
         style="stop-color:#5FBF91"
         id="stop5103" /><stop
         offset="0.5"
         style="stop-color:#5FBF91;stop-opacity:0"
         id="stop5105" /><stop
         offset="1"
         style="stop-color:#5FBF91"
         id="stop5107" /></linearGradient></g></g><path
   class="st15"
   d="m 540.52389,436.00887 c -1.16737,0 -2.1138,0.94642 -2.1138,2.11379 0,0.33637 0.0791,0.65294 0.21765,0.93324 l -3.29766,1.8236 -5.18061,2.89535 -10.36124,5.79397 -10.33155,5.84675 -2.58206,1.46086 c -0.44189,0.25062 -0.83431,0.46827 -1.2696,0.64634 -0.43199,0.17477 -0.87388,0.32317 -1.32896,0.4188 -1.817,0.41551 -3.76592,0.1484 -5.40485,-0.709 l -20.47844,-11.95399 -20.54109,-11.90454 c -13.71495,-7.89788 -27.4299,-15.79577 -41.2042,-23.59472 l -10.32826,-5.85004 -2.58206,-1.46086 c -0.42869,-0.24403 -0.87058,-0.48805 -1.2597,-0.73208 -0.38583,-0.26711 -0.76836,-0.54411 -1.10802,-0.87388 -0.6958,-0.63645 -1.2564,-1.41469 -1.69169,-2.2523 -0.41551,-0.84749 -0.709,-1.76094 -0.81452,-2.70407 -0.0693,-0.47157 -0.0627,-0.93984 -0.0725,-1.44438 l -0.0198,-1.48394 -0.0396,-2.96789 -0.0791,-5.93578 -0.0824,-5.93578 -0.066,-3.63401 c 1.22673,-0.0528 2.20613,-1.06185 2.20613,-2.30177 0,-1.27619 -1.03216,-2.30836 -2.30835,-2.30836 -1.2762,0 -2.30836,1.03217 -2.30836,2.30836 0,1.27619 1.03216,2.30836 2.30836,2.30836 0.007,0 0.0132,0 0.0198,0 l -0.066,3.62742 -0.0824,5.93578 -0.0792,5.93578 -0.0396,2.96789 -0.0198,1.48394 c -0.003,0.48476 -0.0231,1.00909 0.0363,1.52022 0.0857,1.02887 0.39572,2.03136 0.83431,2.96459 0.46167,0.92335 1.06184,1.78404 1.81371,2.49963 0.36604,0.36604 0.78154,0.68261 1.20364,0.9827 0.44189,0.29019 0.86399,0.53092 1.29268,0.78154 l 2.55898,1.50373 10.22933,6.02152 c 13.6391,8.02649 27.33756,15.95735 41.03602,23.88491 l 20.57736,11.83859 10.30517,5.88961 5.15424,2.9448 2.58206,1.46086 1.29268,0.73208 c 0.43859,0.24403 0.8409,0.48806 1.32236,0.73208 1.88296,0.94643 4.09899,1.20695 6.13694,0.7024 0.51113,-0.11541 1.00578,-0.29349 1.48724,-0.49794 0.47816,-0.20446 0.94973,-0.47486 1.36193,-0.72219 l 2.55898,-1.50373 10.22933,-6.02481 10.19964,-6.07428 5.09818,-3.03714 3.22511,-1.94232 c 0.35614,0.65953 1.05525,1.10801 1.85987,1.10801 1.16737,0 2.1138,-0.94643 2.1138,-2.1138 -0.003,-1.15748 -0.94972,-2.1039 -2.12039,-2.1039 z"
   id="path1752-8"
   style="fill:url(#SVGID_15_-7);stroke-width:0.329765" /><path
   class="st16"
   d="m 563.59454,405.24468 -7.05335,3.98173 -14.10355,7.96347 -28.15022,16.03121 -7.03756,4.00702 -1.75702,1.00807 -0.87851,0.50562 c -0.14852,0.0885 -0.28756,0.16116 -0.42662,0.23384 -0.13588,0.0759 -0.27808,0.14537 -0.42029,0.20541 -1.1408,0.51509 -2.41116,0.73947 -3.65624,0.64782 -0.62254,-0.0475 -1.24192,-0.16749 -1.83286,-0.36973 -0.29389,-0.10429 -0.58461,-0.21805 -0.86587,-0.35393 -0.28124,-0.13905 -0.5467,-0.28758 -0.8469,-0.46138 l -3.50141,-2.03195 -7.00595,-4.06389 -28.02382,-16.24926 -28.08385,-16.14183 -7.02175,-4.03545 -0.43293,-0.25281 -0.40135,-0.24964 -0.38237,-0.27177 -0.36341,-0.29706 c -0.47086,-0.41081 -0.89115,-0.87851 -1.24508,-1.39359 -0.71102,-1.02705 -1.16293,-2.2342 -1.29564,-3.47613 -0.0379,-0.31601 -0.0442,-0.61306 -0.0474,-0.94803 l -0.004,-1.01123 -0.004,-2.02564 -0.0126,-4.04809 -0.0475,-8.09935 -0.19277,-32.39424 -0.15485,-16.19554 -0.079,-8.09936 -0.10429,-8.09934 -0.10428,8.09934 -0.0727,8.09936 -0.15485,16.19554 -0.19276,32.39424 -0.0475,8.09935 -0.0126,4.04809 -0.004,2.02564 -0.004,1.01123 c 0.004,0.34129 0.006,0.71734 0.0506,1.07444 0.14852,1.441 0.66677,2.84093 1.4884,4.03545 0.41082,0.59725 0.89432,1.14396 1.44102,1.6243 l 0.4203,0.34761 0.44241,0.31917 0.46137,0.29073 0.43926,0.25913 7.00595,4.06389 28.02065,16.24927 28.08387,16.14497 7.02175,4.03546 3.51088,2.0193 c 0.28125,0.16433 0.60674,0.34446 0.93223,0.50247 0.32865,0.15483 0.66362,0.28757 1.00807,0.40765 0.6889,0.23069 1.40625,0.36973 2.12674,0.42029 1.44418,0.10113 2.91363,-0.16433 4.23139,-0.76474 0.16749,-0.0727 0.32864,-0.15169 0.48665,-0.24017 0.16117,-0.0853 0.31917,-0.17064 0.46138,-0.25597 l 0.87536,-0.50878 1.75069,-1.01756 6.99016,-4.08917 27.95744,-16.36303 13.94872,-8.23207 6.97434,-4.11762 6.96172,-4.13974 z"
   id="path1761-9"
   style="fill:url(#SVGID_16_-4);stroke-width:0.316011" /></svg>
