<svg id="Brand" xmlns="http://www.w3.org/2000/svg" viewBox="0 0 1190.55 841.89"><defs><style>.cls-1{fill:#58595b;}.cls-2{fill:#c33761;}.cls-3{fill:#eecb6e;}.cls-4{font-size:128.97px;fill:#fff;font-family:Nunito-ExtraBold, Nunito;font-weight:800;}.cls-5{letter-spacing:-0.01em;}.cls-6{letter-spacing:0.04em;}.cls-7{letter-spacing:0em;}.cls-8{letter-spacing:0em;}.cls-9{letter-spacing:0em;}.cls-10{fill:#6d6e70;}.cls-11{fill:#4ed29f;}.cls-12{fill:#1b6ded;}.cls-13{fill:#366092;}.cls-14{fill:#ffcc72;}.cls-15{fill:#404041;}</style></defs><circle class="cls-1" cx="588.37" cy="354.06" r="103.66"/><path class="cls-2" d="M664.3,367.18l-.59-.4c-.05.51-.13,1-.19,1.52Z"/><path class="cls-3" d="M663.74,366.55l-.1.18.07,0Z"/><text class="cls-4" transform="matrix(1, 0, 0, 1, 303.19, 555.17)">po<tspan class="cls-5" x="154.63" y="0">l</tspan><tspan class="cls-6" x="195.77" y="0">y</tspan><tspan class="cls-7" x="270.06" y="0">w</tspan><tspan class="cls-8" x="381.1" y="0">r</tspan><tspan class="cls-9" x="433.59" y="0">ap</tspan></text><path class="cls-10" d="M506.12,417.08A103.26,103.26,0,0,1,660.58,280.75a103.66,103.66,0,0,0-137-9.75c-45.47,34.8-53.71,99.14-18.91,144.6a104.56,104.56,0,0,0,9.76,11A104.78,104.78,0,0,1,506.12,417.08Z"/><path class="cls-2" d="M663.69,367.18l-.58-.4c-.06.51-.13,1-.19,1.52Z"/><path class="cls-3" d="M663.13,366.55l-.09.18.07,0C663.11,366.7,663.13,366.62,663.13,366.55Z"/><circle class="cls-11" cx="580.75" cy="371.82" r="49.08"/><circle class="cls-12" cx="625.07" cy="327.21" r="32.21"/><path class="cls-13" d="M598.1,344.88a32.2,32.2,0,0,0,30,14.38,49.13,49.13,0,0,0-35.2-35A32.05,32.05,0,0,0,598.1,344.88Z"/><circle class="cls-14" cx="573.91" cy="296.74" r="13.69"/><path class="cls-15" d="M670,291.21a102.65,102.65,0,0,1-19.12,143.91c-41.09,31.45-100.71,26.76-136.6-8.48,35.78,36.59,96.42,41.83,138.07,9.95a102.65,102.65,0,0,0,19.12-143.91,103.78,103.78,0,0,0-9.67-10.94A104.13,104.13,0,0,1,670,291.21Z"/></svg>