<?xml version="1.0" encoding="UTF-8" standalone="no"?>
<svg
   width="2934"
   height="658"
   viewBox="0 0 2934 658"
   fill="none"
   version="1.1"
   id="svg73"
   xmlns:xlink="http://www.w3.org/1999/xlink"
   xmlns="http://www.w3.org/2000/svg"
   xmlns:svg="http://www.w3.org/2000/svg">
  <path
     fill-rule="evenodd"
     clip-rule="evenodd"
     d="m 329.25,631.14 c 166.995,0 302.372,-135.274 302.372,-302.143 0,-166.869 -135.377,-302.1426 -302.372,-302.1426 -166.995,0 -302.3719,135.2736 -302.3719,302.1426 0,166.869 135.3769,302.143 302.3719,302.143 z"
     fill="#06071a"
     id="path34" />
  <path
     fill-rule="evenodd"
     clip-rule="evenodd"
     d="m 329.2495,658.2495 c -181.702,0 -329,-147.41 -329,-329.25 0,-181.839 147.298,-329.249 329,-329.249 181.702,0 329,147.41 329,329.249 0,181.84 -147.298,329.25 -329,329.25 z m 0.003,-26.877 c -166.869,0 -302.143,-135.377 -302.143,-302.372 0,-166.995 135.274,-302.3719 302.143,-302.3719 166.869,0 302.1426,135.3769 302.1426,302.3719 0,166.995 -135.2736,302.372 -302.1426,302.372 z"
     fill="url(#paint0_angular_455_4899)"
     id="path36"
     style="fill:url(#linearGradient943);fill-opacity:1" />
  <path
     d="m 447.777,290.257 c -33.28,28.547 -87.393,31.671 -116.144,-13.987 -15.542,-27.409 -4.686,-66.247 27.725,-93.173 32.411,-26.926 84.429,-12.547 102.425,19.19 17.997,31.736 13.679,64.222 -14.006,87.97 z"
     fill="#ffffff"
     id="path38" />
  <path
     d="m 283.151,339.964 c 0.394,-0.024 0.76,-0.021 1.096,0.009 13.297,9.868 28.492,13.166 44.183,16.572 20.2,4.385 41.222,8.948 60.071,27.935 36.396,36.662 7.994,100.899 -36.587,127.079 -44.581,26.179 -101.959,11.288 -128.158,-33.259 -21.141,-35.945 -5.281,-75.894 5.3,-102.548 2.532,-6.378 4.762,-11.995 6.111,-16.614 0.009,0.001 0.018,0.001 0.027,0.002 0.264,-1.517 1.546,-9.661 -0.106,-16.061 -2.787,-10.801 -14.367,-17.237 -26.69,-24.087 -13.221,-7.349 -27.298,-15.174 -32.295,-29.375 -10.481,-29.784 9.18,-66.291 39.226,-70.083 41.427,-5.228 64.261,29.935 56.684,55.542 -5.748,19.429 -10.916,44.929 11.138,64.888 z"
     fill="#ffffff"
     id="path40" />
  <path
     d="m 1000.37,475.241 v -86.857 c 17.94,20.727 40.99,30.104 73.75,30.104 62.56,0 108.49,-33.394 108.49,-93.436 0,-60.043 -45.93,-93.436 -108.49,-93.436 -32.76,0 -55.81,9.376 -73.75,30.103 v -27.142 h -67.497 v 240.664 z m -0.33,-150.189 c 0.16,-28.952 25.85,-47.541 57.29,-47.541 32.76,0 57.95,16.944 57.95,47.541 0,30.761 -25.19,47.376 -57.95,47.376 -31.44,0 -57.13,-18.424 -57.29,-47.376 z"
     fill="#ffffff"
     id="path42" />
  <path
     d="m 1334.81,418.488 c 78.36,0 125.28,-33.065 125.28,-93.436 0,-60.043 -47.08,-93.436 -125.28,-93.436 -79.68,0 -126.59,33.393 -126.59,93.436 0,60.207 46.91,93.436 126.59,93.436 z m -59.1,-93.436 c 0,-31.584 25.52,-50.337 59.1,-50.337 32.43,0 57.78,18.753 57.78,50.337 0,31.748 -25.02,50.337 -57.78,50.337 -33.58,0 -59.1,-18.589 -59.1,-50.337 z"
     fill="#ffffff"
     id="path44" />
  <path
     d="m 1561.6,174.863 h -67.5 v 240.664 h 67.5 z"
     fill="#ffffff"
     id="path46" />
  <path
     d="m 1588.68,234.577 90.55,166.638 -6.09,13.983 c -4.12,10.857 -15.48,15.956 -28.32,15.956 h -31.11 v 51.982 h 31.44 c 43.13,0 82.64,-15.133 103.88,-53.955 l 105.69,-194.604 h -76.39 L 1721.7,348.74 1664.9,234.577 Z"
     fill="#ffffff"
     id="path48" />
  <path
     d="m 2145.37,234.577 -42.15,118.111 -38.02,-118.111 h -63.71 l -38.2,117.946 -41.98,-117.946 h -67.82 l 68.65,180.95 h 73.75 l 37.53,-113.176 37.37,113.176 h 73.76 l 68.64,-180.95 z"
     fill="#ffffff"
     id="path50" />
  <path
     d="m 2374.76,278.663 v -47.047 c -32.1,0 -54.33,12.008 -68.15,31.09 v -28.129 h -67.5 v 180.95 h 67.5 v -93.6 c -0.17,-22.372 21.89,-43.264 68.15,-43.264 z"
     fill="#ffffff"
     id="path52" />
  <path
     d="m 2572.1,234.577 v 27.142 c -17.12,-19.904 -40.99,-30.103 -73.75,-30.103 -62.56,0 -108.65,33.393 -108.65,93.436 0,60.042 46.09,93.436 108.65,93.436 34.08,0 56.63,-10.199 73.75,-30.104 v 27.143 h 67.5 v -180.95 z m -114.91,90.475 c 0,-30.597 25.03,-47.541 57.95,-47.541 31.44,0 56.96,18.589 57.13,47.541 -0.17,28.952 -25.69,47.376 -57.13,47.376 -32.92,0 -57.95,-16.615 -57.95,-47.376 z"
     fill="#ffffff"
     id="path54" />
  <path
     d="m 2751.76,475.241 v -86.857 c 17.94,20.727 40.99,30.104 73.75,30.104 62.56,0 108.49,-33.394 108.49,-93.436 0,-60.043 -45.93,-93.436 -108.49,-93.436 -32.76,0 -55.81,9.376 -73.75,30.103 v -27.142 h -67.5 v 240.664 z m -0.33,-150.189 c 0.17,-28.952 25.85,-47.541 57.29,-47.541 32.76,0 57.95,16.944 57.95,47.541 0,30.761 -25.19,47.376 -57.95,47.376 -31.44,0 -57.12,-18.424 -57.29,-47.376 z"
     fill="#ffffff"
     id="path56" />
  <defs
     id="defs71">
    <linearGradient
       id="linearGradient941">
      <stop
         style="stop-color:#ff34f5;stop-opacity:1;"
         offset="0"
         id="stop937" />
      <stop
         style="stop-color:#008afd;stop-opacity:1;"
         offset="1"
         id="stop939" />
    </linearGradient>
    <linearGradient
       xlink:href="#linearGradient941"
       id="linearGradient943"
       x1="0"
       y1="329"
       x2="658.49902"
       y2="329"
       gradientUnits="userSpaceOnUse"
       gradientTransform="rotate(90,329.2495,329)" />
  </defs>
</svg>
