<?xml version="1.0" encoding="UTF-8" standalone="no"?>
<svg
   width="658"
   height="658.49902"
   viewBox="0 0 658 658.49902"
   fill="none"
   version="1.1"
   id="svg73"
   sodipodi:docname="logo-named.svg"
   xmlns:inkscape="http://www.inkscape.org/namespaces/inkscape"
   xmlns:sodipodi="http://sodipodi.sourceforge.net/DTD/sodipodi-0.dtd"
   xmlns:xlink="http://www.w3.org/1999/xlink"
   xmlns="http://www.w3.org/2000/svg"
   xmlns:svg="http://www.w3.org/2000/svg">
  <sodipodi:namedview
     id="namedview20"
     pagecolor="#ffffff"
     bordercolor="#000000"
     borderopacity="0.25"
     inkscape:showpageshadow="2"
     inkscape:pageopacity="0.0"
     inkscape:pagecheckerboard="0"
     inkscape:deskcolor="#d1d1d1"
     showgrid="false" />
  <path
     fill-rule="evenodd"
     clip-rule="evenodd"
     d="m 329.0005,631.3895 c 166.995,0 302.372,-135.274 302.372,-302.143 0,-166.869 -135.377,-302.1426 -302.372,-302.1426 -166.995,0 -302.3719,135.2736 -302.3719,302.1426 0,166.869 135.3769,302.143 302.3719,302.143 z"
     fill="#06071a"
     id="path34"
     inkscape:export-filename="../61480902/logo.svg"
     inkscape:export-xdpi="96"
     inkscape:export-ydpi="96" />
  <path
     fill-rule="evenodd"
     clip-rule="evenodd"
     d="M 329,658.499 C 147.298,658.499 0,511.089 0,329.249 0,147.41 147.298,0 329,0 c 181.702,0 329,147.41 329,329.249 0,181.84 -147.298,329.25 -329,329.25 z m 0.003,-26.877 C 162.134,631.622 26.86,496.245 26.86,329.25 26.86,162.255 162.134,26.8781 329.003,26.8781 c 166.869,0 302.1426,135.3769 302.1426,302.3719 0,166.995 -135.2736,302.372 -302.1426,302.372 z"
     fill="url(#paint0_angular_455_4899)"
     id="path36"
     style="fill:url(#linearGradient943);fill-opacity:1" />
  <path
     d="m 447.5275,290.5065 c -33.28,28.547 -87.393,31.671 -116.144,-13.987 -15.542,-27.409 -4.686,-66.247 27.725,-93.173 32.411,-26.926 84.429,-12.547 102.425,19.19 17.997,31.736 13.679,64.222 -14.006,87.97 z"
     fill="#ffffff"
     id="path38" />
  <path
     d="m 282.9015,340.2135 c 0.394,-0.024 0.76,-0.021 1.096,0.009 13.297,9.868 28.492,13.166 44.183,16.572 20.2,4.385 41.222,8.948 60.071,27.935 36.396,36.662 7.994,100.899 -36.587,127.079 -44.581,26.179 -101.959,11.288 -128.158,-33.259 -21.141,-35.945 -5.281,-75.894 5.3,-102.548 2.532,-6.378 4.762,-11.995 6.111,-16.614 0.009,0.001 0.018,0.001 0.027,0.002 0.264,-1.517 1.546,-9.661 -0.106,-16.061 -2.787,-10.801 -14.367,-17.237 -26.69,-24.087 -13.221,-7.349 -27.298,-15.174 -32.295,-29.375 -10.481,-29.784 9.18,-66.291 39.226,-70.083 41.427,-5.228 64.261,29.935 56.684,55.542 -5.748,19.429 -10.916,44.929 11.138,64.888 z"
     fill="#ffffff"
     id="path40" />
  <defs
     id="defs71">
    <linearGradient
       id="linearGradient941">
      <stop
         style="stop-color:#ff34f5;stop-opacity:1;"
         offset="0"
         id="stop937" />
      <stop
         style="stop-color:#008afd;stop-opacity:1;"
         offset="1"
         id="stop939" />
    </linearGradient>
    <linearGradient
       xlink:href="#linearGradient941"
       id="linearGradient943"
       x1="0"
       y1="329"
       x2="658.49902"
       y2="329"
       gradientUnits="userSpaceOnUse"
       gradientTransform="rotate(90,329,329)" />
  </defs>
</svg>
