<?xml version="1.0" encoding="UTF-8" standalone="no"?>
<svg
   width="2001.127"
   height="308.27298"
   viewBox="0 0 2001.127 308.27298"
   fill="none"
   version="1.1"
   id="svg73"
   sodipodi:docname="logo-named-bicolor.svg"
   xmlns:inkscape="http://www.inkscape.org/namespaces/inkscape"
   xmlns:sodipodi="http://sodipodi.sourceforge.net/DTD/sodipodi-0.dtd"
   xmlns="http://www.w3.org/2000/svg"
   xmlns:svg="http://www.w3.org/2000/svg">
  <sodipodi:namedview
     id="namedview20"
     pagecolor="#ffffff"
     bordercolor="#000000"
     borderopacity="0.25"
     inkscape:showpageshadow="2"
     inkscape:pageopacity="0.0"
     inkscape:pagecheckerboard="0"
     inkscape:deskcolor="#d1d1d1"
     showgrid="false" />
  <path
     d="m 67.497014,300.37799 v -86.857 c 17.94,20.727 40.989996,30.104 73.749996,30.104 62.56,0 108.49,-33.394 108.49,-93.436 0,-60.042997 -45.93,-93.435997 -108.49,-93.435997 -32.76,0 -55.809996,9.376 -73.749996,30.103 v -27.142 H 1.4160156e-5 V 300.37799 Z m -0.33,-150.189 c 0.16,-28.952 25.85,-47.541 57.289996,-47.541 32.76,0 57.95,16.944 57.95,47.541 0,30.761 -25.19,47.376 -57.95,47.376 -31.439996,0 -57.129996,-18.424 -57.289996,-47.376 z"
     fill="#ffffff"
     id="path42"
     inkscape:export-filename="../10e93bdd/polywrap-text.svg"
     inkscape:export-xdpi="96"
     inkscape:export-ydpi="96" />
  <path
     d="m 401.93701,243.62499 c 78.36,0 125.28,-33.065 125.28,-93.436 0,-60.042997 -47.08,-93.435997 -125.28,-93.435997 -79.68,0 -126.59,33.393 -126.59,93.435997 0,60.207 46.91,93.436 126.59,93.436 z m -59.1,-93.436 c 0,-31.584 25.52,-50.336997 59.1,-50.336997 32.43,0 57.78,18.752997 57.78,50.336997 0,31.748 -25.02,50.337 -57.78,50.337 -33.58,0 -59.1,-18.589 -59.1,-50.337 z"
     fill="#ffffff"
     id="path44" />
  <path
     d="m 628.72701,-6.5917969e-6 h -67.5 V 240.66399 h 67.5 z"
     fill="#ffffff"
     id="path46" />
  <path
     d="m 655.80701,59.713993 90.55,166.637997 -6.09,13.983 c -4.12,10.857 -15.48,15.956 -28.32,15.956 h -31.11 v 51.982 h 31.44 c 43.13,0 82.64,-15.133 103.88,-53.955 l 105.69,-194.603997 h -76.39 l -56.63,114.162997 -56.8,-114.162997 z"
     fill="#ffffff"
     id="path48" />
  <path
     d="m 1212.497,59.713993 -42.15,118.110997 -38.02,-118.110997 h -63.71 l -38.2,117.945997 -41.97999,-117.945997 h -67.82 l 68.65,180.949997 h 73.74999 l 37.53,-113.176 37.37,113.176 h 73.76 l 68.64,-180.949997 z"
     fill="#ffffff"
     id="path50" />
  <path
     d="M 1441.887,103.79999 V 56.752993 c -32.1,0 -54.33,12.008 -68.15,31.09 v -28.129 h -67.5 V 240.66399 h 67.5 v -93.6 c -0.17,-22.372 21.89,-43.264 68.15,-43.264 z"
     fill="#ffffff"
     id="path52" />
  <path
     d="m 1639.227,59.713993 v 27.142 c -17.12,-19.904 -40.99,-30.103 -73.75,-30.103 -62.56,0 -108.65,33.393 -108.65,93.435997 0,60.042 46.09,93.436 108.65,93.436 34.08,0 56.63,-10.199 73.75,-30.104 v 27.143 h 67.5 V 59.713993 Z m -114.91,90.474997 c 0,-30.597 25.03,-47.541 57.95,-47.541 31.44,0 56.96,18.589 57.13,47.541 -0.17,28.952 -25.69,47.376 -57.13,47.376 -32.92,0 -57.95,-16.615 -57.95,-47.376 z"
     fill="#ffffff"
     id="path54" />
  <path
     d="m 1818.887,300.37799 v -86.857 c 17.94,20.727 40.99,30.104 73.75,30.104 62.56,0 108.49,-33.394 108.49,-93.436 0,-60.042997 -45.93,-93.435997 -108.49,-93.435997 -32.76,0 -55.81,9.376 -73.75,30.103 v -27.142 h -67.5 V 300.37799 Z m -0.33,-150.189 c 0.17,-28.952 25.85,-47.541 57.29,-47.541 32.76,0 57.95,16.944 57.95,47.541 0,30.761 -25.19,47.376 -57.95,47.376 -31.44,0 -57.12,-18.424 -57.29,-47.376 z"
     fill="#ffffff"
     id="path56" />
  <defs
     id="defs71" />
</svg>
