<svg id="Brand" xmlns="http://www.w3.org/2000/svg" viewBox="0 0 1190.55 841.89"><defs><style>.cls-1{font-size:129.38px;fill:#fff;font-family:Nunito-ExtraBold, Nunito;font-weight:800;}.cls-2{letter-spacing:-0.01em;}.cls-3{letter-spacing:0.04em;}.cls-4{letter-spacing:0em;}.cls-5{fill:#6d6e70;}.cls-6{fill:#c33761;}.cls-7{fill:#eecb6e;}.cls-8{fill:#58595b;}.cls-9{fill:#a6a8ab;}.cls-10{fill:#404041;}.cls-11{fill:#f1f1f2;}</style></defs><text class="cls-1" transform="matrix(1, 0, 0, 1, 302.2, 554.03)">po<tspan class="cls-2" x="155.13" y="0">l</tspan><tspan class="cls-3" x="196.4" y="0">y</tspan><tspan x="270.92" y="0">w</tspan><tspan class="cls-4" x="382.32" y="0">r</tspan><tspan x="434.98" y="0">ap</tspan></text><path class="cls-5" d="M505.77,415.5a103.59,103.59,0,0,1,155-136.77A103.59,103.59,0,0,0,504.28,414a105.49,105.49,0,0,0,9.8,11.08A105.47,105.47,0,0,1,505.77,415.5Z"/><path class="cls-6" d="M663.85,365.44l-.59-.41c0,.52-.13,1-.19,1.54Z"/><path class="cls-7" d="M663.29,364.8l-.1.18.07,0Z"/><circle class="cls-8" cx="588.3" cy="352.27" r="103.99"/><circle class="cls-9" cx="580.64" cy="370.09" r="49.23"/><circle class="cls-5" cx="625.1" cy="325.34" r="32.31"/><path class="cls-10" d="M598,343.07a32.3,32.3,0,0,0,30.15,14.42,49.2,49.2,0,0,0-35.31-35.08A32.2,32.2,0,0,0,598,343.07Z"/><circle class="cls-11" cx="573.78" cy="295.98" r="13.74"/><path class="cls-10" d="M670.15,289.22A103,103,0,0,1,651,433.59c-41.22,31.56-101,26.85-137-8.5,35.89,36.7,96.72,42,138.51,10a103,103,0,0,0,9.48-155.34A104.7,104.7,0,0,1,670.15,289.22Z"/></svg>