<svg id="Brand" xmlns="http://www.w3.org/2000/svg" viewBox="0 0 1190.55 841.89"><defs><style>.cls-1{fill:#e6e7e8;}.cls-2{fill:#c33761;}.cls-3{fill:#eecb6e;}.cls-4{font-size:128.92px;fill:#231f20;font-family:Nunito-ExtraBold, Nunito;font-weight:800;}.cls-5{letter-spacing:-0.01em;}.cls-6{letter-spacing:0.04em;}.cls-7{letter-spacing:0em;}.cls-8{letter-spacing:0em;}.cls-9{fill:#f1f1f2;}.cls-10{fill:#4ed29f;}.cls-11{fill:#1b6ded;}.cls-12{fill:#366092;}.cls-13{fill:#ffcc72;}.cls-14{fill:#d0d2d3;}</style></defs><circle class="cls-1" cx="588.36" cy="353.75" r="103.62"/><path class="cls-2" d="M664.26,366.87l-.59-.41c0,.52-.12,1-.19,1.53Z"/><path class="cls-3" d="M663.7,366.23a1.19,1.19,0,0,1-.1.18l.07,0A1.6,1.6,0,0,0,663.7,366.23Z"/><text class="cls-4" transform="matrix(1, 0, 0, 1, 303.28, 554.79)">po<tspan class="cls-5" x="154.58" y="0">l</tspan><tspan class="cls-6" x="195.7" y="0">y</tspan><tspan x="269.96" y="0">w</tspan><tspan class="cls-7" x="380.96" y="0">r</tspan><tspan class="cls-8" x="433.44" y="0">ap</tspan></text><path class="cls-9" d="M506.14,416.75A103.22,103.22,0,0,1,660.55,280.47a103.65,103.65,0,0,0-137-9.75c-45.45,34.79-53.69,99.1-18.91,144.55a105.78,105.78,0,0,0,9.77,11A104.78,104.78,0,0,1,506.14,416.75Z"/><path class="cls-2" d="M663.65,366.87l-.58-.41c-.05.52-.13,1-.19,1.53Z"/><path class="cls-3" d="M663.1,366.23l-.1.18.07,0Z"/><circle class="cls-10" cx="580.74" cy="371.51" r="49.06"/><circle class="cls-11" cx="625.04" cy="326.91" r="32.2"/><path class="cls-12" d="M598.08,344.58a32.2,32.2,0,0,0,30,14.37A49,49,0,0,0,592.94,324,32.09,32.09,0,0,0,598.08,344.58Z"/><circle class="cls-13" cx="573.9" cy="296.45" r="13.69"/><path class="cls-14" d="M669.93,290.92a102.62,102.62,0,0,1-19.11,143.86c-41.08,31.44-100.68,26.76-136.55-8.47,35.76,36.57,96.38,41.81,138,9.94a102.64,102.64,0,0,0,9.44-154.79A102.46,102.46,0,0,1,669.93,290.92Z"/></svg>